<svg width="523" height="336" viewBox="0 0 523 336" fill="none" xmlns="http://www.w3.org/2000/svg">
<g clip-path="url(#clip0_105_1841)">
<path d="M458.301 310.229C475.12 293.41 475.12 266.141 458.301 249.322C441.482 232.503 414.213 232.503 397.395 249.322C380.576 266.141 380.576 293.41 397.395 310.229C414.213 327.047 441.482 327.047 458.301 310.229Z" fill="#2F2E41"/>
<path d="M427.609 283.737C435.546 281.981 440.556 274.122 438.799 266.185C437.042 258.248 429.183 253.238 421.246 254.995C413.309 256.752 408.299 264.61 410.056 272.547C411.813 280.484 419.672 285.494 427.609 283.737Z" fill="white"/>
<path d="M419.528 270.355C422.174 269.769 423.844 267.15 423.259 264.504C422.673 261.858 420.053 260.188 417.408 260.774C414.762 261.36 413.092 263.979 413.678 266.625C414.263 269.271 416.883 270.941 419.528 270.355Z" fill="#3F3D56"/>
<path d="M426.148 250.66C408.534 250.627 396.17 247.481 396.199 231.524C396.229 215.567 410.531 202.657 428.144 202.69C445.758 202.722 460.012 215.684 459.982 231.642C459.953 247.599 443.761 250.692 426.148 250.66Z" fill="#00BC41"/>
<path d="M495.351 286.974C490.299 304.501 475.548 316.769 460.16 327.191C458.012 328.647 455.862 330.069 453.712 331.457C453.698 331.464 453.683 331.477 453.668 331.484C453.565 331.55 453.461 331.617 453.365 331.684C452.921 331.97 452.477 332.256 452.037 332.539L452.279 332.647C452.279 332.647 452.516 332.774 452.256 332.668C452.179 332.635 452.098 332.606 452.021 332.574C443.082 328.969 433.984 325.097 427.133 318.343C420.027 311.33 415.873 300.329 419.722 291.115C420.227 289.909 420.866 288.762 421.626 287.697C421.939 287.25 422.275 286.822 422.625 286.403C424.747 283.812 427.522 281.834 430.663 280.671C433.803 279.508 437.197 279.202 440.495 279.786C443.793 280.369 446.876 281.821 449.427 283.991C451.978 286.161 453.905 288.971 455.01 292.133C456.141 281.607 447.462 272.79 439.109 266.284C430.753 259.782 421.258 252.701 419.642 242.234C418.74 236.41 420.765 230.766 424.455 226.235C424.569 226.098 424.683 225.96 424.8 225.826C429.291 220.549 435.607 217.161 442.488 216.337C455.301 215.006 467.747 221.788 477.055 230.697C492.037 245.03 501.095 267.047 495.351 286.974Z" fill="#E6E6E6"/>
<path d="M471.266 264.05C473.725 267.876 475.613 272.04 476.87 276.411C477.933 280.318 478.407 284.362 478.274 288.408C477.931 296.735 475.594 304.857 471.458 312.093C468.343 317.582 464.546 322.655 460.159 327.192C458.01 328.647 455.861 330.069 453.711 331.458C453.696 331.464 453.681 331.478 453.667 331.484C453.563 331.551 453.46 331.617 453.363 331.684C452.92 331.97 452.476 332.256 452.036 332.539C452.036 332.539 452.515 332.774 452.255 332.668C452.178 332.636 452.097 332.607 452.02 332.574C452.821 326.006 452.036 319.34 449.731 313.138C447.426 306.935 443.667 301.375 438.771 296.923C433.862 292.54 427.987 289.379 421.625 287.697C421.937 287.25 422.273 286.823 422.623 286.403C425.081 287.092 427.472 287.997 429.77 289.108C437.984 293.052 444.71 299.537 448.952 307.601C452.758 314.924 454.397 323.181 453.674 331.402C454.042 331.07 454.409 330.729 454.766 330.393C461.559 324.06 467.592 316.79 471.676 308.401C475.218 301.296 476.959 293.429 476.745 285.493C476.412 276.84 472.964 268.825 467.972 261.847C462.501 254.403 456.038 247.742 448.762 242.049C441.429 236.176 433.406 231.222 424.87 227.298C424.677 227.208 424.527 227.048 424.449 226.85C424.372 226.652 424.373 226.432 424.453 226.236C424.51 226.059 424.634 225.912 424.799 225.827C424.884 225.79 424.976 225.773 425.068 225.777C425.16 225.781 425.25 225.806 425.331 225.849C426.385 226.334 427.432 226.826 428.47 227.339C437.117 231.613 445.2 236.945 452.533 243.212C459.615 249.25 466.283 256.149 471.266 264.05Z" fill="white"/>
<path d="M73.7156 335.549C79.7373 335.549 84.6188 333.718 84.6188 331.46C84.6188 329.202 79.7373 327.372 73.7156 327.372C67.694 327.372 62.8125 329.202 62.8125 331.46C62.8125 333.718 67.694 335.549 73.7156 335.549Z" fill="#2F2E41"/>
<path d="M99.8797 335.004C105.901 335.004 110.783 333.173 110.783 330.915C110.783 328.657 105.901 326.827 99.8797 326.827C93.8581 326.827 88.9766 328.657 88.9766 330.915C88.9766 333.173 93.8581 335.004 99.8797 335.004Z" fill="#2F2E41"/>
<path d="M134.619 266.281C144.922 260.341 151.763 252.904 149.899 249.67C148.034 246.435 138.17 248.628 127.867 254.568C117.563 260.507 110.723 267.944 112.587 271.179C114.452 274.413 124.316 272.22 134.619 266.281Z" fill="#2F2E41"/>
<path d="M124.948 280.845C128.758 257.367 112.814 235.245 89.3359 231.435C65.8576 227.625 43.736 243.57 39.926 267.048C36.116 290.526 52.0603 312.648 75.5386 316.458C99.0169 320.268 121.138 304.323 124.948 280.845Z" fill="#2F2E41"/>
<path d="M75.8962 307.746H62.8125V331.188H75.8962V307.746Z" fill="#2F2E41"/>
<path d="M102.06 307.746H88.9766V331.188H102.06V307.746Z" fill="#2F2E41"/>
<path d="M83.5278 277.763C91.657 277.763 98.247 271.173 98.247 263.043C98.247 254.914 91.657 248.324 83.5278 248.324C75.3986 248.324 68.8086 254.914 68.8086 263.043C68.8086 271.173 75.3986 277.763 83.5278 277.763Z" fill="white"/>
<path d="M83.5275 267.95C86.2373 267.95 88.4339 265.753 88.4339 263.043C88.4339 260.333 86.2373 258.137 83.5275 258.137C80.8178 258.137 78.6211 260.333 78.6211 263.043C78.6211 265.753 80.8178 267.95 83.5275 267.95Z" fill="#3F3D56"/>
<path d="M40.6601 233.895C37.1827 218.321 48.2988 202.585 65.4887 198.746C82.6787 194.908 99.433 204.421 102.91 219.995C106.388 235.569 94.9955 241.313 77.8056 245.151C60.6156 248.989 44.1376 249.469 40.6601 233.895Z" fill="#E6E6E6"/>
<path d="M53.3836 263.191C54.9835 259.818 47.5696 252.952 36.8242 247.855C26.0788 242.759 16.071 241.362 14.4711 244.735C12.8712 248.109 20.285 254.975 31.0305 260.071C41.7759 265.167 51.7837 266.564 53.3836 263.191Z" fill="#2F2E41"/>
<path d="M61.2812 289.483C61.2812 293.699 72.1345 302.022 84.1778 302.022C96.221 302.022 107.513 290.155 107.513 285.94C107.513 281.725 96.221 286.758 84.1778 286.758C72.1345 286.758 61.2812 285.268 61.2812 289.483Z" fill="white"/>
<path d="M232.61 335.549C238.632 335.549 243.513 333.718 243.513 331.46C243.513 329.202 238.632 327.372 232.61 327.372C226.589 327.372 221.707 329.202 221.707 331.46C221.707 333.718 226.589 335.549 232.61 335.549Z" fill="#2F2E41"/>
<path d="M206.442 335.004C212.464 335.004 217.345 333.173 217.345 330.915C217.345 328.657 212.464 326.827 206.442 326.827C200.421 326.827 195.539 328.657 195.539 330.915C195.539 333.173 200.421 335.004 206.442 335.004Z" fill="#2F2E41"/>
<path d="M193.735 271.179C195.599 267.945 188.758 260.507 178.455 254.568C168.152 248.628 158.288 246.435 156.423 249.67C154.558 252.904 161.399 260.341 171.703 266.281C182.006 272.221 191.87 274.414 193.735 271.179Z" fill="#2F2E41"/>
<path d="M223.888 317.014C247.673 317.014 266.955 297.732 266.955 273.946C266.955 250.161 247.673 230.879 223.888 230.879C200.102 230.879 180.82 250.161 180.82 273.946C180.82 297.732 200.102 317.014 223.888 317.014Z" fill="#2F2E41"/>
<path d="M243.513 307.746H230.43V331.188H243.513V307.746Z" fill="#2F2E41"/>
<path d="M217.345 307.746H204.262V331.188H217.345V307.746Z" fill="#2F2E41"/>
<path d="M213.797 277.763C221.927 277.763 228.517 271.173 228.517 263.043C228.517 254.914 221.927 248.324 213.797 248.324C205.668 248.324 199.078 254.914 199.078 263.043C199.078 271.173 205.668 277.763 213.797 277.763Z" fill="white"/>
<path d="M210.251 264.5C212.173 262.579 212.186 259.474 210.278 257.565C208.371 255.656 205.267 255.666 203.344 257.587C201.422 259.507 201.409 262.612 203.317 264.521C205.224 266.43 208.328 266.42 210.251 264.5Z" fill="#3F3D56"/>
<path d="M228.519 245.151C211.329 241.313 199.937 235.569 203.414 219.995C206.892 204.421 223.646 194.908 240.836 198.746C258.026 202.585 269.142 218.321 265.665 233.895C262.187 249.469 245.709 248.989 228.519 245.151Z" fill="#00BC41"/>
<path d="M268.921 306.775C272.53 305.817 272.98 295.722 269.927 284.228C266.874 272.733 261.474 264.192 257.866 265.151C254.257 266.109 253.807 276.204 256.86 287.698C259.913 299.193 265.313 307.733 268.921 306.775Z" fill="#2F2E41"/>
<path d="M214.129 286.758C206.222 286.758 198.809 281.725 198.809 285.94C198.809 290.155 206.222 302.022 214.129 302.022C222.035 302.022 229.161 293.699 229.161 289.484C229.161 285.269 222.035 286.758 214.129 286.758Z" fill="white"/>
<path d="M158.473 202.539H154.649C151.222 202.535 147.938 201.172 145.515 198.75C143.092 196.327 141.73 193.042 141.726 189.616V186.405C141.726 178.452 143.233 171.793 146.205 166.613C149.807 160.587 154.009 154.941 158.747 149.761C161.892 146.598 164.746 143.158 167.275 139.482C169.088 136.627 170.025 133.302 169.968 129.92C169.968 121.942 164.77 118.063 154.077 118.063C148.146 118.13 142.252 119.015 136.562 120.692C134.368 121.319 132.058 121.427 129.815 121.009C127.572 120.591 125.456 119.659 123.634 118.284C121.813 116.91 120.335 115.132 119.317 113.089C118.299 111.047 117.77 108.796 117.77 106.514V100.014C117.757 97.2159 118.556 94.4741 120.071 92.1212C121.585 89.7682 123.75 87.9051 126.302 86.7577C136.351 82.4692 147.188 80.3374 158.112 80.4998C169.556 80.4998 179.887 82.4222 188.819 86.2127C197.767 90.0121 204.836 95.3695 209.83 102.137C214.809 108.856 217.456 117.018 217.366 125.381C217.366 134.361 214.915 142.182 210.08 148.627C205.297 155.007 198.442 161.992 189.704 169.388C185.1 173.216 180.737 177.327 176.64 181.694C173.994 184.544 172.124 188.026 171.209 191.806C170.699 194.812 169.14 197.541 166.808 199.506C164.476 201.471 161.523 202.546 158.473 202.539Z" fill="#00BC41"/>
<path d="M156.346 263.311H155.842C149.492 263.306 143.404 260.781 138.916 256.29C134.428 251.799 131.906 245.709 131.906 239.359C131.906 233.01 134.428 226.92 138.916 222.429C143.404 217.938 149.492 215.412 155.842 215.408H156.346C159.493 215.406 162.609 216.024 165.517 217.227C168.424 218.43 171.067 220.194 173.292 222.418C175.518 224.642 177.284 227.283 178.488 230.19C179.693 233.097 180.313 236.213 180.313 239.359C180.313 242.506 179.693 245.622 178.488 248.529C177.284 251.436 175.518 254.077 173.292 256.301C171.067 258.525 168.424 260.289 165.517 261.492C162.609 262.695 159.493 263.313 156.346 263.311Z" fill="#00BC41"/>
<path d="M312 336H1C0.734784 336 0.480444 335.895 0.292908 335.707C0.105371 335.52 0 335.265 0 335C0 334.735 0.105371 334.48 0.292908 334.293C0.480444 334.105 0.734784 334 1 334H312C312.265 334 312.52 334.105 312.707 334.293C312.895 334.48 313 334.735 313 335C313 335.265 312.895 335.52 312.707 335.707C312.52 335.895 312.265 336 312 336Z" fill="#CCCCCC"/>
<path d="M522 336H356C355.735 336 355.48 335.895 355.293 335.707C355.105 335.52 355 335.265 355 335C355 334.735 355.105 334.48 355.293 334.293C355.48 334.105 355.735 334 356 334H522C522.265 334 522.52 334.105 522.707 334.293C522.895 334.48 523 334.735 523 335C523 335.265 522.895 335.52 522.707 335.707C522.52 335.895 522.265 336 522 336Z" fill="#CCCCCC"/>
<path d="M418.97 306.79C430.86 306.558 440.44 303.343 440.367 299.611C440.294 295.878 430.596 293.04 418.705 293.273C406.815 293.505 397.235 296.72 397.308 300.453C397.381 304.185 407.079 307.023 418.97 306.79Z" fill="#2F2E41"/>
<path d="M408.16 149H382.16C380.835 148.998 379.564 148.471 378.626 147.534C377.689 146.596 377.162 145.326 377.16 144V118C377.162 116.674 377.689 115.404 378.626 114.466C379.564 113.529 380.835 113.002 382.16 113H408.16C409.486 113.002 410.757 113.529 411.694 114.466C412.631 115.404 413.159 116.674 413.16 118V144C413.159 145.326 412.631 146.596 411.694 147.534C410.757 148.471 409.486 148.998 408.16 149ZM382.16 115C381.365 115.001 380.602 115.317 380.04 115.88C379.477 116.442 379.161 117.205 379.16 118V144C379.161 144.795 379.477 145.558 380.04 146.12C380.602 146.683 381.365 146.999 382.16 147H408.16C408.956 146.999 409.718 146.683 410.281 146.12C410.843 145.558 411.159 144.795 411.16 144V118C411.159 117.205 410.843 116.442 410.281 115.88C409.718 115.317 408.956 115.001 408.16 115H382.16Z" fill="#F2F2F2"/>
<path d="M420.16 132H394.16C392.835 131.998 391.564 131.471 390.626 130.534C389.689 129.596 389.162 128.326 389.16 127V101C389.162 99.6744 389.689 98.4035 390.626 97.4662C391.564 96.5288 392.835 96.0015 394.16 96H420.16C421.486 96.0015 422.757 96.5288 423.694 97.4662C424.631 98.4035 425.159 99.6744 425.16 101V127C425.159 128.326 424.631 129.596 423.694 130.534C422.757 131.471 421.486 131.998 420.16 132ZM394.16 98C393.365 98.0009 392.602 98.3172 392.04 98.8796C391.477 99.4421 391.161 100.205 391.16 101V127C391.161 127.795 391.477 128.558 392.04 129.12C392.602 129.683 393.365 129.999 394.16 130H420.16C420.956 129.999 421.718 129.683 422.281 129.12C422.843 128.558 423.159 127.795 423.16 127V101C423.159 100.205 422.843 99.4421 422.281 98.8796C421.718 98.3172 420.956 98.0009 420.16 98H394.16Z" fill="#F2F2F2"/>
<path d="M215.16 49H189.16C187.835 48.9985 186.564 48.4712 185.626 47.5338C184.689 46.5965 184.162 45.3256 184.16 44V18C184.162 16.6744 184.689 15.4035 185.626 14.4662C186.564 13.5288 187.835 13.0015 189.16 13H215.16C216.486 13.0015 217.757 13.5288 218.694 14.4662C219.631 15.4035 220.159 16.6744 220.16 18V44C220.159 45.3256 219.631 46.5965 218.694 47.5338C217.757 48.4712 216.486 48.9985 215.16 49ZM189.16 15C188.365 15.0009 187.602 15.3172 187.04 15.8796C186.477 16.4421 186.161 17.2046 186.16 18V44C186.161 44.7954 186.477 45.5579 187.04 46.1204C187.602 46.6828 188.365 46.9991 189.16 47H215.16C215.956 46.9991 216.718 46.6828 217.281 46.1204C217.843 45.5579 218.159 44.7954 218.16 44V18C218.159 17.2046 217.843 16.4421 217.281 15.8796C216.718 15.3172 215.956 15.0009 215.16 15H189.16Z" fill="#F2F2F2"/>
<path d="M199.16 36H173.16C171.835 35.9985 170.564 35.4712 169.626 34.5338C168.689 33.5965 168.162 32.3256 168.16 31V5C168.162 3.67438 168.689 2.40351 169.626 1.46616C170.564 0.528803 171.835 0.00151655 173.16 0H199.16C200.486 0.00151655 201.757 0.528803 202.694 1.46616C203.631 2.40351 204.159 3.67438 204.16 5V31C204.159 32.3256 203.631 33.5965 202.694 34.5338C201.757 35.4712 200.486 35.9985 199.16 36ZM173.16 2C172.365 2.00087 171.602 2.31722 171.04 2.87964C170.477 3.44206 170.161 4.20462 170.16 5V31C170.161 31.7954 170.477 32.5579 171.04 33.1204C171.602 33.6828 172.365 33.9991 173.16 34H199.16C199.956 33.9991 200.718 33.6828 201.281 33.1204C201.843 32.5579 202.159 31.7954 202.16 31V5C202.159 4.20462 201.843 3.44206 201.281 2.87964C200.718 2.31722 199.956 2.00087 199.16 2H173.16Z" fill="#F2F2F2"/>
<path d="M321.221 189.637C324.792 189.637 327.688 186.742 327.688 183.17C327.688 179.598 324.792 176.703 321.221 176.703C317.649 176.703 314.754 179.598 314.754 183.17C314.754 186.742 317.649 189.637 321.221 189.637Z" fill="#F2F2F2"/>
<path d="M61.2208 166.637C64.7924 166.637 67.6877 163.742 67.6877 160.17C67.6877 156.598 64.7924 153.703 61.2208 153.703C57.6492 153.703 54.7539 156.598 54.7539 160.17C54.7539 163.742 57.6492 166.637 61.2208 166.637Z" fill="#F2F2F2"/>
<path d="M497.221 222.637C500.792 222.637 503.688 219.742 503.688 216.17C503.688 212.598 500.792 209.703 497.221 209.703C493.649 209.703 490.754 212.598 490.754 216.17C490.754 219.742 493.649 222.637 497.221 222.637Z" fill="#F2F2F2"/>
</g>
<defs>
<clipPath id="clip0_105_1841">
<rect width="523" height="336" fill="white"/>
</clipPath>
</defs>
</svg>
