<svg width="700" height="465" viewBox="0 0 700 465" fill="none" xmlns="http://www.w3.org/2000/svg">
<g clip-path="url(#clip0_105_1804)">
<path d="M354.612 130.693C348.371 120.366 340.975 109.34 329.392 105.968C315.979 102.063 302.199 109.82 290.512 117.475C255.558 140.369 221.898 165.18 189.684 191.793L189.719 192.194C214.799 190.464 239.878 188.734 264.958 187.004C283.078 185.754 301.821 184.331 317.834 175.756C323.911 172.502 329.834 168.155 336.72 167.852C345.274 167.476 352.734 173.453 358.595 179.697C393.271 216.636 403.305 273.124 442.207 305.578C417.676 245.058 388.386 186.58 354.612 130.693Z" fill="#F2F2F2"/>
<path d="M567.757 444.001C563.923 439.157 562.356 438.023 558.573 433.134C527.776 393.286 498.828 352.092 471.731 309.552C453.326 280.661 435.834 251.215 419.254 221.214C411.36 206.951 403.683 192.576 396.222 178.089C390.433 166.857 384.773 155.557 379.242 144.19C377.66 140.943 376.124 137.681 374.594 134.412C370.991 126.725 367.454 119 363.657 111.417C359.33 102.774 354.063 93.7136 346.117 87.9069C342.501 85.1559 338.177 83.4914 333.65 83.1079C327.182 82.6899 321.213 85.3619 315.603 88.2801C274.554 109.693 236.125 136.54 201.366 167.088C166.518 197.705 135.369 232.295 108.555 270.152C107.735 271.324 105.795 270.205 106.623 269.025C109.884 264.413 113.209 259.85 116.598 255.337C158.745 199.26 210.424 151.037 269.272 112.873C279.173 106.454 289.26 100.336 299.533 94.5196C304.71 91.5864 309.911 88.6906 315.2 85.9739C320.385 83.3094 325.891 80.9135 331.815 80.824C351.973 80.5105 362.411 103.349 369.581 118.717C371.834 123.553 374.114 128.374 376.422 133.181C385.143 151.429 394.201 169.511 403.593 187.426C409.39 198.487 415.314 209.483 421.365 220.415C440.195 254.456 460.21 287.809 481.408 320.472C509.49 363.738 537.348 401.959 569.339 442.419C570.219 443.538 568.645 445.136 567.757 444.001Z" fill="#E4E4E4"/>
<path d="M199.375 155.81C198.203 154.504 197.039 153.198 195.861 151.892C186.565 141.607 176.59 131.442 163.825 125.545C157.738 122.645 151.094 121.104 144.352 121.03C137.384 121.052 130.573 122.881 124.134 125.441C121.09 126.657 118.113 128.038 115.182 129.508C111.832 131.195 108.541 132.994 105.266 134.808C99.1187 138.211 93.0507 141.764 87.0626 145.466C75.1478 152.832 63.6061 160.761 52.4377 169.252C46.648 173.655 40.9779 178.203 35.4272 182.895C30.2645 187.254 25.2063 191.73 20.2524 196.322C19.1931 197.3 17.6113 195.718 18.6707 194.74C19.9763 193.523 21.2968 192.314 22.6174 191.12C26.3477 187.747 30.1377 184.438 33.9875 181.194C41.0078 175.268 48.2097 169.57 55.5935 164.102C67.0755 155.594 78.9528 147.662 91.2253 140.308C97.3581 136.636 103.575 133.118 109.877 129.755C111.78 128.74 113.704 127.747 115.652 126.807C120.07 124.577 124.66 122.708 129.379 121.216C136.063 119.053 143.135 118.358 150.112 119.179C156.849 120.159 163.339 122.405 169.241 125.799C181.775 132.807 191.496 143.644 200.956 154.22C201.911 155.295 200.337 156.885 199.375 155.81Z" fill="#E4E4E4"/>
<path d="M456.184 262.388L486.218 251.399L501.13 245.943C505.987 244.166 510.832 242.143 515.852 240.87C520.215 239.623 524.848 239.682 529.178 241.04C533.039 242.47 536.573 244.662 539.571 247.485C542.633 250.307 545.483 253.351 548.096 256.593C551.342 260.496 554.541 264.44 557.754 268.371C571.015 284.595 584.189 300.889 597.276 317.254C610.363 333.618 623.363 350.052 636.275 366.555C649.218 383.099 662.073 399.712 674.838 416.394C676.402 418.438 677.965 420.482 679.526 422.528C680.388 423.658 682.333 422.544 681.458 421.398C668.599 404.548 655.649 387.767 642.61 371.055C629.539 354.304 616.378 337.623 603.126 321.013C589.875 304.404 576.534 287.866 563.103 271.401C559.757 267.299 556.406 263.201 553.049 259.108C550.217 255.656 547.417 252.166 544.311 248.952C538.61 243.054 531.487 237.841 522.961 237.699C517.948 237.616 513.097 239.208 508.439 240.893C503.418 242.71 498.409 244.562 493.394 246.396L463.15 257.463L455.589 260.229C454.247 260.72 454.827 262.885 456.184 262.388Z" fill="#E4E4E4"/>
<path d="M159.873 138.487C144.61 130.64 125.064 132.177 111.039 141.981C137.791 146.598 164.251 152.776 190.282 160.483C179.472 154.145 171.016 144.216 159.873 138.487Z" fill="#F2F2F2"/>
<path d="M110.887 141.954L107.949 144.343C108.943 143.507 109.976 142.723 111.038 141.981C110.988 141.972 110.938 141.962 110.887 141.954Z" fill="#F2F2F2"/>
<path d="M538.442 262.498C535.486 258.898 532.289 255.128 527.867 253.666L523.738 253.829C555.167 309.386 597.613 357.931 648.472 396.485C611.795 351.823 575.119 307.16 538.442 262.498Z" fill="#F2F2F2"/>
<path d="M281.705 232.798C283.616 239.743 287.92 245.787 293.856 249.862C296.152 251.425 298.867 252.925 299.652 255.589C300.065 257.288 299.811 259.08 298.941 260.596C298.073 262.093 297.017 263.472 295.799 264.7L295.688 265.117C289.992 261.741 284.574 257.47 281.427 251.642C278.281 245.815 277.842 238.177 281.705 232.798Z" fill="#F2F2F2"/>
<path d="M471.33 398.071C473.241 405.015 477.545 411.059 483.481 415.134C485.777 416.698 488.492 418.197 489.277 420.862C489.69 422.56 489.436 424.352 488.566 425.868C487.698 427.365 486.642 428.745 485.424 429.973L485.313 430.39C479.617 427.013 474.199 422.742 471.052 416.915C467.906 411.087 467.467 403.449 471.33 398.071Z" fill="#F2F2F2"/>
<path d="M92.8965 386.673C94.8071 393.617 99.1114 399.661 105.048 403.736C107.343 405.3 110.058 406.799 110.844 409.464C111.257 411.162 111.002 412.954 110.133 414.471C109.265 415.967 108.209 417.347 106.99 418.575L106.879 418.992C101.183 415.615 95.765 411.344 92.6189 405.517C89.4727 399.689 89.0335 392.052 92.8965 386.673Z" fill="#F2F2F2"/>
<path d="M528.376 83.0433C551.299 83.0433 569.882 64.4534 569.882 41.5216C569.882 18.5899 551.299 0 528.376 0C505.454 0 486.871 18.5899 486.871 41.5216C486.871 64.4534 505.454 83.0433 528.376 83.0433Z" fill="#00BC41"/>
<path d="M603.28 9.66407C583.164 6.94404 560.2 17.8208 554.986 37.4457C553.672 33.9564 551.283 30.9753 548.165 28.933C545.047 26.8907 541.36 25.8931 537.638 26.0842C533.915 26.2752 530.35 27.6452 527.457 29.996C524.564 32.3469 522.493 35.557 521.543 39.1625L523.846 40.8125C566.952 50.138 611.574 49.9362 654.595 40.2212C640.603 25.5104 623.395 12.384 603.28 9.66407Z" fill="#F0F0F0"/>
<path d="M517.014 65.0264C496.899 62.3063 473.934 73.1831 468.72 92.808C467.407 89.3187 465.018 86.3376 461.899 84.2953C458.781 82.2531 455.094 81.2554 451.372 81.4465C447.65 81.6376 444.085 83.0075 441.191 85.3584C438.298 87.7092 436.227 90.9193 435.277 94.5248L437.58 96.1749C480.687 105.5 525.309 105.299 568.329 95.5835C554.337 80.8727 537.129 67.7463 517.014 65.0264Z" fill="#F0F0F0"/>
<path d="M692.578 75.4945C692.495 75.4947 692.412 75.4818 692.333 75.4564C477.151 7.37866 287.498 16.281 166.29 35.7371C149.795 38.3839 133.256 41.441 117.132 44.824C113.015 45.6866 108.745 46.6113 104.439 47.5741C99.2961 48.7198 94.222 49.8997 89.3565 51.0796C87.2552 51.5773 85.1949 52.079 83.1757 52.5846C80.1171 53.34 77.0136 54.1271 73.6867 54.9921C69.9693 55.9509 66.1922 56.9567 62.458 57.9815C62.4444 57.9864 62.4304 57.9903 62.4163 57.9935L62.4167 57.9943C58.1989 59.1463 54.0034 60.3318 49.9462 61.5156C47.7503 62.1501 45.6299 62.7758 43.5989 63.3936C43.372 63.4564 43.1709 63.5168 42.9671 63.5788L42.5307 63.7116C42.278 63.7887 42.0284 63.8643 41.7789 63.9358L41.763 63.9406L41.7634 63.9414L41.1029 64.1466C40.3153 64.3851 39.5468 64.618 38.791 64.8502C18.8156 71.0104 7.83449 75.3928 7.72601 75.4357C7.62681 75.4755 7.52075 75.4954 7.41388 75.4941C7.30701 75.4929 7.20143 75.4706 7.10317 75.4286C7.00491 75.3865 6.91587 75.3256 6.84117 75.2491C6.76647 75.1726 6.70756 75.0822 6.66779 74.983C6.62803 74.8837 6.6082 74.7776 6.60943 74.6707C6.61065 74.5638 6.63292 74.4582 6.67495 74.3599C6.71697 74.2616 6.77794 74.1725 6.85437 74.0978C6.93081 74.023 7.0212 73.9641 7.12041 73.9243C7.22969 73.8814 18.2645 69.4767 38.3126 63.2935C39.0712 63.0605 39.8417 62.8276 40.6317 62.5882L41.2452 62.3974C41.2663 62.3895 41.2873 62.3831 41.3088 62.3768C41.5571 62.306 41.8051 62.2305 42.057 62.1541L42.4942 62.0214C42.7119 61.9554 42.9265 61.8902 43.1463 61.8297C45.1633 61.2159 47.2909 60.5886 49.4924 59.9518C53.5512 58.7671 57.7507 57.5817 61.9716 56.4281C61.9847 56.4233 61.9983 56.4201 62.0114 56.4161C65.7586 55.3881 69.5496 54.3776 73.279 53.4155C76.611 52.5497 79.7205 51.761 82.7843 51.0041C84.8121 50.4992 86.8763 49.9965 88.977 49.4958C93.8481 48.3144 98.9325 47.1329 104.084 45.9848C108.397 45.0212 112.675 44.0941 116.798 43.2307C132.947 39.8421 149.512 36.7803 166.032 34.1296C287.414 14.6456 477.338 5.72888 692.823 73.9044C693.008 73.9629 693.167 74.0858 693.269 74.2509C693.372 74.416 693.412 74.6123 693.382 74.8045C693.353 74.9966 693.256 75.1718 693.108 75.2983C692.961 75.4249 692.773 75.4945 692.578 75.4945Z" fill="#CCCCCC"/>
<path d="M214.026 341.813C213.744 340.988 213.27 340.243 212.643 339.639C212.411 339.424 212.16 339.23 211.894 339.061C209.77 337.644 206.596 337.327 204.578 339.061C204.374 339.237 204.186 339.43 204.016 339.639C203.414 340.38 202.795 341.104 202.16 341.813C201.119 343.001 200.053 344.149 198.938 345.265C198.62 345.574 198.303 345.891 197.977 346.201C197.79 346.388 197.603 346.567 197.416 346.746C196.7 347.43 195.967 348.09 195.227 348.741C194.836 349.091 194.445 349.433 194.047 349.767C193.452 350.263 192.858 350.76 192.256 351.24C192.199 351.281 192.142 351.322 192.085 351.371C192.069 351.379 192.061 351.395 192.045 351.403C192.036 351.403 192.028 351.403 192.02 351.42C191.998 351.428 191.979 351.442 191.963 351.46C191.784 351.582 191.662 351.664 191.573 351.737C191.605 351.721 191.638 351.696 191.67 351.68C191.524 351.794 191.369 351.908 191.223 352.022C189.798 353.072 188.342 354.082 186.852 355.026C183.168 357.385 179.297 359.441 175.28 361.173C175.011 361.279 174.734 361.393 174.458 361.499C163.939 365.81 152.528 367.492 141.213 366.4C140.057 366.31 138.901 366.188 137.746 366.034C136.411 365.838 135.085 365.602 133.766 365.333C128.747 364.332 123.836 362.848 119.101 360.904C113.178 358.191 107.545 354.885 102.287 351.037C101.473 350.459 100.652 349.881 99.8296 349.319C100.765 347.023 101.685 344.727 102.58 342.415C103.028 341.3 103.459 340.184 103.882 339.061C107.211 330.406 110.336 321.671 113.331 312.902C116.358 304.02 119.215 295.086 121.901 286.1C122.177 285.188 122.446 284.277 122.706 283.365C124.114 278.618 125.465 273.861 126.759 269.093C126.881 268.629 127.011 268.173 127.125 267.709C127.5 266.341 127.866 264.973 128.224 263.605C129.038 260.52 127.199 256.832 123.96 256.091C122.4 255.691 120.746 255.912 119.347 256.708C117.947 257.504 116.911 258.812 116.456 260.357C116.106 261.676 115.756 262.987 115.398 264.306C113.681 270.68 111.874 277.033 109.978 283.365C109.701 284.277 109.425 285.188 109.148 286.1C104.965 299.892 100.372 313.545 95.3698 327.06C94.7675 328.697 94.1572 330.328 93.5387 331.953C93.2375 332.751 92.9364 333.549 92.6272 334.347C92.0331 335.918 91.4227 337.489 90.8124 339.061C90.4624 339.981 90.1043 340.901 89.7462 341.813C89.5102 342.391 89.2824 342.969 89.0545 343.539C86.7341 342.705 84.33 342.126 81.8846 341.813L81.494 341.764C79.5981 341.536 77.6808 341.552 75.789 341.813C72.9578 342.143 70.2337 343.092 67.8092 344.591C65.3848 346.091 63.3193 348.105 61.7586 350.491C57.8767 356.606 57.9255 365.35 63.37 370.544C68.9773 375.893 77.4655 375.852 84.0657 372.506C87.5634 370.613 90.5125 367.848 92.6272 364.479C93.4373 363.257 94.1817 361.993 94.8571 360.693C95.028 360.807 95.1989 360.921 95.3698 361.043C96.0208 361.499 96.6719 361.963 97.3148 362.419C101.061 365.134 105.009 367.559 109.124 369.673C117.971 374.073 127.496 376.955 137.298 378.197C137.518 378.221 137.73 378.254 137.949 378.278C139.032 378.417 140.122 378.523 141.213 378.612C156.856 379.791 172.519 376.589 186.445 369.363C187.625 368.753 188.795 368.112 189.953 367.442C191.752 366.4 193.509 365.293 195.227 364.12C196.163 363.485 197.074 362.842 197.977 362.166C201.925 359.258 205.605 356.002 208.972 352.437C210.25 351.094 211.473 349.707 212.643 348.277C213.748 347.107 214.385 345.571 214.433 343.962C214.427 343.227 214.289 342.499 214.026 341.813ZM79.2641 361.206C79.435 361.084 79.6059 360.953 79.7687 360.823C79.7199 360.945 79.4838 361.084 79.2641 361.206ZM81.8765 358.576C81.6893 358.788 81.5184 358.999 81.3312 359.211C80.7618 359.848 80.15 360.447 79.5001 361.002C79.4106 361.084 79.3129 361.165 79.2153 361.238C79.2142 361.238 79.2131 361.238 79.2121 361.239C79.2111 361.239 79.2102 361.24 79.2095 361.241C79.2087 361.241 79.2081 361.242 79.2077 361.243C79.2073 361.244 79.2071 361.245 79.2071 361.246C79.0896 361.299 78.9754 361.359 78.8653 361.425C78.5154 361.637 78.1573 361.833 77.7911 362.012C77.074 362.276 76.3364 362.48 75.5856 362.622C75.0087 362.664 74.4297 362.67 73.8522 362.639H73.8359C73.4373 362.55 73.0434 362.441 72.6558 362.313C72.4605 362.215 72.2733 362.101 72.0861 361.987C72.0129 361.922 71.9477 361.857 71.9071 361.816C71.8276 361.744 71.7541 361.665 71.6874 361.58C71.6874 361.579 71.6872 361.578 71.6868 361.577C71.6864 361.576 71.6858 361.575 71.6851 361.574C71.6843 361.574 71.6834 361.573 71.6824 361.573C71.6814 361.572 71.6803 361.572 71.6793 361.572C71.5897 361.409 71.4921 361.246 71.4026 361.083C71.3979 361.079 71.395 361.073 71.3944 361.067C71.3293 360.864 71.2724 360.652 71.2235 360.44C71.2059 360.069 71.2086 359.696 71.2316 359.325C71.3409 358.805 71.4877 358.293 71.6711 357.794C71.8359 357.441 72.0235 357.098 72.2327 356.769C72.2489 356.736 72.3303 356.606 72.4199 356.459C72.428 356.451 72.428 356.451 72.428 356.443C72.5501 356.304 72.6721 356.158 72.8024 356.028C73.0221 355.783 73.2581 355.572 73.4941 355.352C73.9531 355.051 74.4286 354.777 74.9183 354.53C75.6952 354.253 76.4925 354.038 77.3028 353.886C78.4978 353.791 79.6988 353.802 80.8918 353.919C82.0218 354.115 83.1367 354.39 84.2285 354.741C83.5668 356.026 82.8134 357.261 81.9742 358.438C81.9416 358.486 81.9091 358.535 81.8765 358.576ZM72.8267 355.897C72.755 356.012 72.6704 356.119 72.5744 356.215C72.639 356.095 72.7244 355.987 72.8267 355.897Z" fill="#3F3D56"/>
<path d="M189.565 258.664C189.492 261.22 189.419 263.777 189.345 266.333C189.191 272.008 189.031 277.685 188.865 283.365C188.694 289.756 188.515 296.144 188.328 302.53C188.238 305.827 188.146 309.125 188.051 312.422C187.799 321.304 187.549 330.184 187.303 339.061C187.278 339.981 187.246 340.893 187.221 341.813C187.099 346.217 186.977 350.622 186.855 355.026C186.717 359.806 186.581 364.585 186.448 369.364C186.35 372.946 186.25 376.531 186.147 380.119C185.415 406.114 184.682 432.11 183.95 458.106C183.919 459.716 183.266 461.251 182.128 462.389C180.99 463.528 179.455 464.181 177.846 464.212C176.231 464.199 174.686 463.552 173.544 462.409C172.402 461.267 171.755 459.721 171.742 458.106C172.149 443.484 172.561 428.862 172.979 414.24C173.345 401.018 173.717 387.796 174.094 374.574C174.216 370.219 174.338 365.86 174.46 361.499C174.648 354.937 174.832 348.375 175.014 341.813C175.038 340.893 175.071 339.981 175.095 339.061C175.111 338.255 175.136 337.457 175.16 336.651C175.518 323.91 175.876 311.166 176.235 298.419C176.381 293.404 176.522 288.386 176.658 283.365C176.82 277.642 176.983 271.921 177.146 266.203C177.219 263.687 177.284 261.179 177.358 258.664C177.389 257.054 178.042 255.519 179.18 254.38C180.318 253.242 181.852 252.589 183.461 252.558C185.076 252.571 186.621 253.218 187.763 254.36C188.905 255.503 189.552 257.048 189.565 258.664Z" fill="#3F3D56"/>
<path d="M524.397 260.358C517.997 284.603 510.347 308.501 501.479 331.955C499.032 338.425 496.528 344.881 493.852 351.26L494.467 349.802C493.273 352.84 491.747 355.737 489.918 358.441C489.794 358.616 489.667 358.788 489.539 358.959C490.171 358.15 490.291 357.991 489.899 358.48C489.692 358.725 489.488 358.97 489.274 359.209C488.705 359.847 488.093 360.446 487.444 361.003C487.28 361.142 487.114 361.279 486.946 361.413L487.709 360.82C487.621 361.029 486.999 361.306 486.805 361.424C486.178 361.803 485.524 362.135 484.848 362.417L486.306 361.801C485.199 362.247 484.043 362.564 482.863 362.746L484.485 362.528C483.326 362.688 482.15 362.701 480.988 362.565L482.61 362.783C481.659 362.652 480.728 362.402 479.839 362.037L481.297 362.652C480.823 362.446 480.366 362.202 479.931 361.923C479.71 361.779 479.032 361.265 479.919 361.943C480.841 362.648 480.037 362.003 479.848 361.816C479.69 361.66 479.547 361.49 479.392 361.331C478.674 360.595 480.203 362.599 479.715 361.737C479.454 361.306 479.216 360.861 479 360.405L479.616 361.864C479.336 361.169 479.137 360.445 479.023 359.705L479.241 361.328C479.125 360.408 479.124 359.477 479.239 358.556L479.021 360.179C479.17 359.152 479.442 358.146 479.83 357.183L479.215 358.642C479.486 357.994 479.806 357.369 480.174 356.77C480.343 356.461 480.541 356.169 480.766 355.898C480.806 355.911 479.734 357.13 480.303 356.514C480.452 356.354 480.591 356.184 480.742 356.024C480.983 355.769 481.241 355.535 481.495 355.293C482.345 354.484 480.305 356.08 481.286 355.439C481.997 354.971 482.746 354.563 483.524 354.219L482.066 354.834C483.369 354.299 484.735 353.932 486.131 353.743L484.508 353.961C486.257 353.76 488.023 353.781 489.766 354.024L488.144 353.805C490.351 354.14 492.508 354.747 494.566 355.613L493.108 354.997C497.494 356.881 501.379 359.678 505.257 362.421C509.002 365.134 512.949 367.558 517.062 369.672C525.911 374.073 535.436 376.956 545.239 378.199C559.298 379.922 573.565 378.085 586.73 372.857C599.895 367.629 611.537 359.178 620.588 348.278C621.692 347.106 622.328 345.569 622.376 343.96C622.364 342.343 621.723 340.794 620.588 339.642C618.349 337.586 614.118 337.005 611.956 339.642C609.906 342.145 607.703 344.518 605.358 346.747C604.264 347.786 603.14 348.793 601.987 349.768C601.329 350.324 600.661 350.87 599.985 351.405C599.664 351.658 598.667 352.332 600.199 351.244C599.848 351.493 599.511 351.766 599.165 352.022C594.039 355.801 588.485 358.962 582.618 361.437L584.076 360.821C577.78 363.464 571.167 365.276 564.405 366.213L566.027 365.995C559.07 366.911 552.023 366.9 545.068 365.964L546.691 366.182C539.738 365.227 532.938 363.374 526.461 360.67L527.919 361.286C521.669 358.519 515.738 355.082 510.23 351.035C507.363 348.911 504.34 347.007 501.186 345.34C497.511 343.463 493.533 342.253 489.436 341.767C481.754 340.863 473.927 343.856 469.703 350.495C465.817 356.605 465.867 365.348 471.31 370.544C476.915 375.895 485.404 375.85 492.01 372.503C498.372 369.279 502.193 362.582 504.881 356.267C510.928 342.056 516.283 327.516 521.271 312.903C526.206 298.445 530.682 283.841 534.698 269.091C535.195 267.264 535.685 265.435 536.168 263.604C536.983 260.52 535.142 256.831 531.905 256.093C530.345 255.691 528.69 255.912 527.29 256.707C525.889 257.503 524.852 258.812 524.397 260.358Z" fill="#3F3D56"/>
<path d="M585.298 258.663L583.101 336.653L580.915 414.237L579.68 458.106C579.693 459.721 580.341 461.267 581.483 462.409C582.624 463.551 584.169 464.199 585.783 464.212C587.392 464.181 588.927 463.528 590.065 462.39C591.203 461.251 591.856 459.716 591.887 458.106L594.084 380.116L596.27 302.533L597.505 258.663C597.492 257.048 596.844 255.503 595.702 254.361C594.561 253.219 593.016 252.571 591.402 252.557C589.793 252.588 588.258 253.242 587.12 254.38C585.982 255.518 585.329 257.054 585.298 258.663Z" fill="#3F3D56"/>
<path opacity="0.2" d="M374.029 436.331H375.924V349.997H420.138V348.106H375.924V311.678H410.069C409.568 311.041 409.053 310.412 408.523 309.791H375.924V285.731C375.297 285.463 374.665 285.206 374.029 284.963V309.791H336.876V278.963C336.239 278.993 335.612 279.036 334.98 279.09V309.791H305.341V286.791C304.704 287.073 304.077 287.369 303.455 287.68V309.791H278.539V311.678H303.455V348.106H278.539V349.997H303.455V436.331H305.341V349.997C309.233 349.997 313.088 350.763 316.684 352.253C320.281 353.743 323.548 355.927 326.301 358.68C329.053 361.434 331.237 364.703 332.726 368.301C334.215 371.899 334.981 375.755 334.98 379.649V436.331H336.876V349.997H374.029V436.331ZM305.341 348.106V311.678H334.98V348.106H305.341ZM336.876 348.106V311.678H337.619C342.401 311.678 347.136 312.62 351.553 314.451C355.971 316.282 359.985 318.966 363.366 322.348C366.747 325.731 369.428 329.747 371.258 334.166C373.088 338.586 374.029 343.323 374.029 348.106H336.876Z" fill="black"/>
<path d="M362.456 410.445C360.07 421.093 354.354 430.704 346.139 437.882C345.536 438.403 344.934 438.908 344.308 439.405C342.786 439.543 341.275 439.684 339.775 439.828C338.529 439.942 337.3 440.064 336.08 440.178L335.86 440.202L335.705 438.867L335.087 433.461C332.687 429.543 331.2 425.134 330.735 420.562C330.27 415.99 330.84 411.372 332.401 407.05C334.55 401.254 338.44 396.133 342.265 391.052C347.547 384.034 352.682 377.098 352.869 368.541C355.468 371.868 357.629 375.516 359.298 379.394C357.723 380.136 356.307 381.178 355.131 382.463C354.798 382.829 354.464 383.342 354.692 383.782C354.887 384.156 355.376 384.246 355.799 384.295C356.816 384.401 357.842 384.506 358.859 384.612C359.673 384.702 360.486 384.783 361.3 384.873C362.285 388.106 362.953 391.427 363.294 394.789C363.843 400.019 363.56 405.304 362.456 410.445Z" fill="#3F3D56"/>
<path d="M389.472 389.106C384.67 392.599 381.862 397.623 379.681 403.159C377.446 403.874 375.435 405.159 373.846 406.887C373.513 407.254 373.179 407.767 373.407 408.206C373.602 408.581 374.09 408.671 374.514 408.719C375.531 408.825 376.556 408.931 377.574 409.037C375.392 415.583 373.39 422.356 369.533 427.884C366.968 431.534 363.623 434.568 359.743 436.767C358.684 437.37 357.592 437.911 356.471 438.387C352.337 438.704 348.281 439.044 344.304 439.405C342.782 439.543 341.271 439.684 339.771 439.828C338.526 439.942 337.297 440.064 336.076 440.178C336.068 439.73 336.068 439.283 336.076 438.835C336.334 426.906 340.72 415.437 348.487 406.383C348.854 405.959 349.228 405.544 349.61 405.129C353.545 400.924 358.173 397.427 363.291 394.789C371.356 390.594 380.394 388.632 389.472 389.106Z" fill="#00BC41"/>
<path d="M341.18 435.652L340.244 438.42L339.772 439.828C338.527 439.942 337.298 440.064 336.078 440.178L335.858 440.203C334.507 440.341 333.164 440.479 331.821 440.618C331.471 440.211 331.121 439.796 330.78 439.372C322.285 429.082 318.207 415.846 319.438 402.557C320.669 389.267 327.107 377.006 337.347 368.452C336.273 374.077 337.526 379.467 339.585 384.816C339.366 384.906 339.154 384.995 338.95 385.093C337.375 385.835 335.96 386.877 334.784 388.162C334.45 388.529 334.116 389.041 334.344 389.481C334.539 389.856 335.028 389.945 335.451 389.994C336.468 390.1 337.494 390.206 338.511 390.312C339.325 390.401 340.139 390.482 340.952 390.572C341.335 390.613 341.717 390.653 342.1 390.694C342.157 390.816 342.206 390.93 342.263 391.052C344.582 396.084 347.081 401.14 348.489 406.383C348.842 407.698 349.119 409.033 349.319 410.38C349.945 414.934 349.539 419.57 348.13 423.944C346.721 428.319 344.346 432.321 341.18 435.652Z" fill="#00BC41"/>
<path d="M423.1 317.567C416.094 303.896 405.24 292.393 392.474 283.94C379.667 275.499 364.971 270.358 349.697 268.976C347.695 268.794 345.687 268.688 343.675 268.656C341.298 268.621 305.534 278.94 293.554 287.367C281.58 295.691 271.73 306.715 264.799 319.548C257.88 332.452 254.477 346.95 254.931 361.585C255.524 376.309 259.626 390.678 266.896 403.494C274.067 416.269 284.249 427.098 296.556 435.039C309.038 443.007 321.577 464.134 336.315 464.879C351.164 465.631 368.098 445.702 381.641 439.651C395.184 433.55 406.892 424.004 415.599 411.966C424.059 400.168 429.532 386.494 431.549 372.115C433.643 357.393 432.667 342.209 427.641 328.138C426.352 324.522 424.835 320.992 423.1 317.567C421.652 314.714 417.407 313.663 414.749 315.377C413.38 316.22 412.388 317.559 411.981 319.115C411.573 320.671 411.78 322.324 412.559 323.731C413.41 325.407 414.201 327.111 414.932 328.842L414.317 327.383C417.084 334.039 418.965 341.03 419.913 348.175L419.695 346.552C420.703 354.305 420.685 362.156 419.641 369.904L419.859 368.281C418.804 376.028 416.737 383.603 413.711 390.812L414.326 389.353C412.769 393.031 410.955 396.595 408.897 400.017C407.853 401.746 406.746 403.435 405.576 405.082C405.062 405.805 404.532 406.516 403.998 407.225C403.301 408.149 404.947 406.017 404.227 406.924C404.105 407.078 403.983 407.233 403.86 407.387C403.49 407.849 403.115 408.308 402.735 408.761C400.198 411.79 397.429 414.616 394.453 417.215C393.712 417.862 392.959 418.495 392.193 419.113C391.811 419.421 391.434 419.742 391.036 420.029C391.051 420.018 392.322 419.052 391.57 419.613C391.333 419.789 391.099 419.968 390.862 420.143C389.283 421.313 387.663 422.424 386 423.475C382.172 425.887 378.156 427.987 373.991 429.754L375.45 429.139C368.265 432.165 360.714 434.232 352.991 435.287L354.613 435.069C346.894 436.113 339.07 436.126 331.347 435.11L332.969 435.328C325.95 434.385 319.084 432.528 312.546 429.805L314.004 430.42C310.217 428.821 306.566 426.917 303.086 424.728C301.363 423.643 299.686 422.49 298.053 421.27C297.82 421.097 297.589 420.92 297.357 420.745C296.612 420.182 297.893 421.16 297.903 421.167C297.47 420.856 297.053 420.523 296.654 420.169C295.865 419.527 295.089 418.87 294.325 418.198C291.268 415.505 288.414 412.591 285.785 409.479C285.127 408.7 284.483 407.911 283.853 407.109C283.58 406.762 283.083 406.059 284.182 407.54C284.037 407.345 283.887 407.154 283.741 406.96C283.391 406.494 283.045 406.025 282.703 405.553C281.508 403.899 280.372 402.204 279.295 400.468C276.861 396.539 274.738 392.426 272.943 388.167L273.558 389.626C270.621 382.635 268.613 375.29 267.584 367.777L267.802 369.4C266.874 362.475 266.861 355.457 267.763 348.529L267.545 350.152C268.469 343.442 270.274 336.883 272.912 330.645L272.296 332.104C273.956 328.199 275.914 324.428 278.152 320.823C279.273 319.019 280.46 317.259 281.715 315.544C282 315.154 282.288 314.766 282.579 314.381C282.843 314.033 283.568 313.165 282.331 314.697C282.452 314.547 282.569 314.393 282.688 314.241C283.377 313.369 284.082 312.51 284.804 311.664C287.537 308.464 290.497 305.465 293.661 302.692C294.461 301.991 295.273 301.304 296.098 300.633C296.473 300.328 296.85 300.026 297.23 299.727C297.382 299.607 297.536 299.49 297.687 299.37C296.062 300.664 297.236 299.722 297.605 299.445C299.305 298.171 301.051 296.96 302.842 295.813C306.824 293.266 311.012 291.057 315.364 289.212L313.906 289.828C320.221 287.175 348.201 280.913 353.29 281.597L351.668 281.379C359.148 282.423 366.458 284.444 373.413 287.389L371.955 286.773C375.48 288.271 378.905 289.992 382.21 291.926C383.861 292.895 385.48 293.916 387.066 294.99C387.817 295.498 388.559 296.018 389.294 296.549C389.662 296.814 390.027 297.082 390.39 297.354C390.592 297.504 390.792 297.657 390.993 297.808C391.839 298.442 389.828 296.89 390.715 297.591C393.682 299.923 396.5 302.439 399.152 305.125C400.455 306.452 401.713 307.821 402.926 309.232C403.548 309.956 404.158 310.691 404.754 311.436C405.051 311.807 406.061 313.147 404.823 311.505C405.126 311.906 405.431 312.305 405.73 312.709C408.302 316.192 410.586 319.878 412.559 323.731C414.019 326.579 418.245 327.641 420.91 325.922C422.28 325.079 423.272 323.74 423.68 322.184C424.088 320.628 423.88 318.974 423.1 317.567Z" fill="#3F3D56"/>
<path d="M351.977 417.216C351.347 417.245 350.723 417.079 350.19 416.742C349.657 416.404 349.241 415.911 348.998 415.329C348.754 414.747 348.696 414.104 348.83 413.487C348.964 412.871 349.285 412.31 349.748 411.882C349.825 411.573 349.881 411.352 349.958 411.044C349.931 410.976 349.903 410.909 349.875 410.842C347.043 404.087 328.971 422.919 328.19 429.268C327.846 432.074 327.991 434.919 328.619 437.676C322.766 424.902 319.726 411.019 319.706 396.966C319.705 393.44 319.901 389.917 320.293 386.412C320.617 383.539 321.066 380.687 321.641 377.855C324.779 362.489 331.515 348.087 341.297 335.832C346.891 336.144 351.793 335.291 352.267 324.445C352.351 322.516 353.781 320.846 354.097 318.945C353.563 319.015 353.02 319.059 352.486 319.094C352.319 319.103 352.144 319.111 351.978 319.12L351.915 319.123C351.328 319.149 350.746 319.005 350.239 318.709C349.732 318.412 349.321 317.974 349.057 317.45C348.793 316.925 348.685 316.335 348.748 315.75C348.811 315.166 349.042 314.612 349.412 314.156C349.643 313.872 349.873 313.588 350.104 313.305C350.454 312.867 350.813 312.437 351.164 312C351.204 311.958 351.242 311.914 351.277 311.868C351.68 311.369 352.083 310.878 352.486 310.379C351.751 309.238 350.762 308.282 349.596 307.585C345.56 305.22 339.992 306.858 337.077 310.511C334.152 314.163 333.601 319.287 334.616 323.85C335.615 327.733 337.267 331.417 339.502 334.745C339.283 335.026 339.055 335.297 338.836 335.578C334.835 340.725 331.348 346.251 328.425 352.079C329.252 345.616 319.137 322.274 315.226 317.331C310.528 311.392 300.894 313.984 300.066 321.512C300.058 321.585 300.05 321.657 300.042 321.73C300.623 322.058 301.192 322.406 301.749 322.774C302.448 323.242 302.989 323.909 303.303 324.69C303.616 325.47 303.686 326.327 303.504 327.148C303.322 327.969 302.897 328.716 302.283 329.291C301.67 329.866 300.897 330.242 300.066 330.371L299.981 330.384C292.205 341.492 317.135 370.403 323.375 363.912C320.438 372.238 318.595 380.912 317.894 389.714C317.497 394.907 317.521 400.124 317.964 405.313L317.938 405.129C316.551 393.827 292.765 377.023 285.819 378.423C281.818 379.229 277.877 379.046 278.484 383.083C278.494 383.148 278.504 383.212 278.514 383.277C279.592 383.716 280.642 384.222 281.657 384.792C282.238 385.12 282.806 385.468 283.363 385.836C284.062 386.303 284.604 386.971 284.917 387.751C285.23 388.532 285.3 389.389 285.119 390.21C284.937 391.031 284.511 391.778 283.898 392.353C283.284 392.928 282.511 393.304 281.681 393.432L281.595 393.445C281.534 393.454 281.482 393.463 281.42 393.472C277.88 405.657 304.132 425.321 320.092 419.064H320.1C321.682 425.94 323.974 432.632 326.938 439.034H351.365C351.453 438.762 351.531 438.482 351.61 438.21C349.349 438.353 347.079 438.217 344.851 437.808C346.663 435.583 348.476 433.341 350.288 431.116C350.328 431.074 350.366 431.031 350.402 430.985C351.321 429.846 352.249 428.716 353.168 427.578L353.169 427.576C353.218 424.086 352.818 420.604 351.978 417.216L351.977 417.216ZM324.005 362.169L324.018 362.151L324.005 362.186V362.169ZM318.595 410.962L318.384 410.49C318.393 410.148 318.393 409.806 318.384 409.456C318.384 409.36 318.367 409.263 318.367 409.167C318.446 409.771 318.516 410.376 318.603 410.98L318.595 410.962Z" fill="#3F3D56"/>
<path d="M77.5146 366.367C82.4587 366.367 86.4667 362.358 86.4667 357.412C86.4667 352.466 82.4587 348.456 77.5146 348.456C72.5705 348.456 68.5625 352.466 68.5625 357.412C68.5625 362.358 72.5705 366.367 77.5146 366.367Z" fill="#3F3D56"/>
<path d="M184.94 464.066C189.885 464.066 193.893 460.056 193.893 455.11C193.893 450.164 189.885 446.154 184.94 446.154C179.996 446.154 175.988 450.164 175.988 455.11C175.988 460.056 179.996 464.066 184.94 464.066Z" fill="#3F3D56"/>
<path d="M592.671 464.066C597.615 464.066 601.623 460.056 601.623 455.11C601.623 450.164 597.615 446.154 592.671 446.154C587.727 446.154 583.719 450.164 583.719 455.11C583.719 460.056 587.727 464.066 592.671 464.066Z" fill="#3F3D56"/>
<path d="M614.644 350.084C619.588 350.084 623.596 346.075 623.596 341.128C623.596 336.182 619.588 332.173 614.644 332.173C609.699 332.173 605.691 336.182 605.691 341.128C605.691 346.075 609.699 350.084 614.644 350.084Z" fill="#3F3D56"/>
<path d="M588.601 267.041C593.545 267.041 597.553 263.032 597.553 258.086C597.553 253.139 593.545 249.13 588.601 249.13C583.656 249.13 579.648 253.139 579.648 258.086C579.648 263.032 583.656 267.041 588.601 267.041Z" fill="#3F3D56"/>
<path d="M215.052 341.129C215.046 343.417 214.162 345.615 212.582 347.268C211.002 348.922 208.846 349.904 206.562 350.012C204.278 350.12 202.04 349.346 200.311 347.849C198.581 346.352 197.494 344.247 197.272 341.971C197.051 339.694 197.713 337.419 199.122 335.617C200.53 333.815 202.578 332.623 204.84 332.289C207.102 331.955 209.406 332.504 211.275 333.822C213.144 335.14 214.435 337.127 214.881 339.37C214.996 339.949 215.053 340.539 215.052 341.129Z" fill="#3F3D56"/>
<path d="M394.097 293.094C399.041 293.094 403.049 289.084 403.049 284.138C403.049 279.192 399.041 275.183 394.097 275.183C389.153 275.183 385.145 279.192 385.145 284.138C385.145 289.084 389.153 293.094 394.097 293.094Z" fill="#3F3D56"/>
<path d="M305.388 284.138C305.382 286.426 304.498 288.624 302.918 290.277C301.338 291.931 299.182 292.913 296.898 293.021C294.614 293.13 292.376 292.355 290.647 290.858C288.917 289.361 287.83 287.257 287.608 284.98C287.387 282.703 288.049 280.428 289.458 278.626C290.866 276.824 292.914 275.633 295.176 275.299C297.438 274.965 299.742 275.513 301.611 276.831C303.48 278.15 304.771 280.136 305.217 282.38C305.332 282.959 305.389 283.548 305.388 284.138Z" fill="#3F3D56"/>
<path d="M189.825 258.085C189.82 260.373 188.935 262.571 187.355 264.225C185.775 265.878 183.62 266.861 181.336 266.969C179.052 267.077 176.813 266.302 175.084 264.805C173.355 263.309 172.267 261.204 172.046 258.927C171.824 256.65 172.487 254.375 173.895 252.573C175.304 250.771 177.351 249.58 179.613 249.246C181.876 248.912 184.18 249.461 186.049 250.779C187.918 252.097 189.208 254.083 189.654 256.327C189.769 256.906 189.826 257.495 189.825 258.085Z" fill="#3F3D56"/>
<path d="M487.686 369.624C492.631 369.624 496.639 365.615 496.639 360.669C496.639 355.722 492.631 351.713 487.686 351.713C482.742 351.713 478.734 355.722 478.734 360.669C478.734 365.615 482.742 369.624 487.686 369.624Z" fill="#3F3D56"/>
<path d="M346.892 288.209C354.084 288.209 359.914 282.377 359.914 275.183C359.914 267.988 354.084 262.156 346.892 262.156C339.701 262.156 333.871 267.988 333.871 275.183C333.871 282.377 339.701 288.209 346.892 288.209Z" fill="#3F3D56"/>
<path d="M699.031 464.75L0.969005 465C0.841753 465 0.715743 464.975 0.598177 464.926C0.480612 464.877 0.373795 464.806 0.283814 464.716C0.193834 464.626 0.122448 464.519 0.0737508 464.402C0.0250534 464.284 0 464.158 0 464.031C0 463.903 0.0250534 463.777 0.0737508 463.66C0.122448 463.542 0.193834 463.435 0.283814 463.345C0.373795 463.255 0.480612 463.184 0.598177 463.135C0.715743 463.086 0.841753 463.061 0.969005 463.061L699.031 462.811C699.287 462.812 699.533 462.914 699.714 463.096C699.895 463.278 699.997 463.524 699.997 463.78C699.997 464.037 699.895 464.283 699.714 464.465C699.533 464.647 699.287 464.749 699.031 464.75Z" fill="#CACACA"/>
</g>
<defs>
<clipPath id="clip0_105_1804">
<rect width="700" height="465" fill="white"/>
</clipPath>
</defs>
</svg>
