<svg width="70" height="70" viewBox="0 0 70 70" fill="none" xmlns="http://www.w3.org/2000/svg">
<ellipse cx="34.9447" cy="2.46572" rx="2.45246" ry="2.46572" fill="#F05822"/>
<path d="M35.1205 5.96099C35.4816 6.53092 34.0407 9.53776 31.5872 11.1581C29.0992 13.7034 26.4719 15.7484 26.1108 15.1784C25.7498 14.6085 27.4739 12.0831 29.9618 9.53776C32.4498 6.99243 34.7594 5.39105 35.1205 5.96099Z" fill="#F05822"/>
<path d="M34.8787 19.1956C34.8787 25.5126 34.5232 30.6335 34.0846 30.6335C33.6461 30.6335 32.1308 32.8604 32.9159 19.1956C32.3241 11.3412 31.4755 8.99806 34.0846 7.75781C34.5232 7.75781 34.8787 12.8787 34.8787 19.1956Z" fill="#F05822"/>
<path d="M34.9928 5.96099C34.6317 6.53092 36.0726 9.53776 38.5261 11.1581C41.0141 13.7034 43.6413 15.7484 44.0024 15.1784C44.3635 14.6085 42.6394 12.0831 40.1514 9.53776C37.6635 6.99243 35.3539 5.39105 34.9928 5.96099Z" fill="#F05822"/>
<path d="M35.2346 19.1956C35.2346 25.5126 35.5901 30.6335 36.0287 30.6335C36.4672 30.6335 37.9825 32.8604 37.1974 19.1956C37.7891 11.3412 38.6378 8.99806 36.0287 7.75781C35.5901 7.75781 35.2346 12.8787 35.2346 19.1956Z" fill="#F05822"/>
<path d="M34.8522 5.96099C34.4911 6.53092 34.2152 12.3504 38.3855 11.1581C40.8734 13.7034 43.5007 15.7484 43.8618 15.1784C44.2229 14.6085 42.4987 12.0831 40.0108 9.53776C37.5229 6.99243 35.2133 5.39105 34.8522 5.96099Z" fill="#F05822"/>
<rect x="34.2109" y="5.99121" width="1.66812" height="16.4281" fill="#F05822"/>
<ellipse cx="34.9447" cy="2.46572" rx="2.45246" ry="2.46572" fill="#F05822"/>
<path d="M35.1205 5.96099C35.4816 6.53092 34.0407 9.53776 31.5872 11.1581C29.0992 13.7034 26.4719 15.7484 26.1108 15.1784C25.7498 14.6085 27.4739 12.0831 29.9618 9.53776C32.4498 6.99243 34.7594 5.39105 35.1205 5.96099Z" fill="#F05822"/>
<path d="M34.8787 19.1956C34.8787 25.5126 34.5232 30.6335 34.0846 30.6335C33.6461 30.6335 32.1308 32.8604 32.9159 19.1956C32.3241 11.3412 31.4755 8.99806 34.0846 7.75781C34.5232 7.75781 34.8787 12.8787 34.8787 19.1956Z" fill="#F05822"/>
<path d="M34.9928 5.96099C34.6317 6.53092 36.0726 9.53776 38.5261 11.1581C41.0141 13.7034 43.6413 15.7484 44.0024 15.1784C44.3635 14.6085 42.6394 12.0831 40.1514 9.53776C37.6635 6.99243 35.3539 5.39105 34.9928 5.96099Z" fill="#F05822"/>
<path d="M35.2346 19.1956C35.2346 25.5126 35.5901 30.6335 36.0287 30.6335C36.4672 30.6335 37.9825 32.8604 37.1974 19.1956C37.7891 11.3412 38.6378 8.99806 36.0287 7.75781C35.5901 7.75781 35.2346 12.8787 35.2346 19.1956Z" fill="#F05822"/>
<path d="M34.8522 5.96099C34.4911 6.53092 34.2152 12.3504 38.3855 11.1581C40.8734 13.7034 43.5007 15.7484 43.8618 15.1784C44.2229 14.6085 42.4987 12.0831 40.0108 9.53776C37.5229 6.99243 35.2133 5.39105 34.8522 5.96099Z" fill="#F05822"/>
<rect x="34.2109" y="5.99121" width="1.66812" height="16.4281" fill="#F05822"/>
<ellipse cx="34.9486" cy="2.46572" rx="2.45246" ry="2.46572" fill="#F05822"/>
<ellipse cx="2.45901" cy="2.4592" rx="2.45901" ry="2.4592" transform="matrix(0.703849 -0.710349 0.706543 0.70767 8.39062 12.2656)" fill="#8C5F3B"/>
<path d="M14.4306 14.5997C15.087 14.7448 16.1889 17.8933 15.5993 20.7844C15.6371 24.3529 15.224 27.6675 14.5675 27.5224C13.9111 27.3774 13.3482 24.3669 13.3104 20.7984C13.2726 17.2299 13.7741 14.4547 14.4306 14.5997Z" fill="#8C5F3B"/>
<path d="M23.589 24.1138C28.0404 28.5722 31.3981 32.4398 31.0886 32.7522C30.779 33.0645 31.279 35.7156 22.2038 25.5118C16.2514 20.3896 14.0013 19.3402 14.9687 16.6066C15.2782 16.2942 19.1377 19.6553 23.589 24.1138Z" fill="#8C5F3B"/>
<path d="M14.3536 14.6875C14.5003 15.3469 17.6361 16.4428 20.5094 15.839C24.0588 15.8634 27.354 15.4355 27.2072 14.7761C27.0604 14.1166 24.064 13.5622 20.5146 13.5377C16.9652 13.5133 14.2068 14.028 14.3536 14.6875Z" fill="#8C5F3B"/>
<path d="M23.855 23.856C28.3064 28.3145 32.1659 31.6756 32.4754 31.3632C32.7849 31.0509 35.4236 31.5434 25.2402 22.458C20.123 16.4929 19.0708 14.2347 16.3555 15.2177C16.046 15.53 19.4037 19.3976 23.855 23.856Z" fill="#8C5F3B"/>
<path d="M14.2481 14.79C14.3949 15.4494 18.301 19.7534 20.4039 15.9415C23.9533 15.966 27.2485 15.538 27.1017 14.8786C26.9549 14.2192 23.9586 13.6647 20.4091 13.6403C16.8597 13.6158 14.1013 14.1306 14.2481 14.79Z" fill="#8C5F3B"/>
<rect width="1.67257" height="16.3846" transform="matrix(0.703849 -0.710349 0.706543 0.70767 13.8164 15.2666)" fill="#8C5F3B"/>
<ellipse cx="2.45901" cy="2.4592" rx="2.45901" ry="2.4592" transform="matrix(0.703849 -0.710349 0.706543 0.70767 8.39062 12.2627)" fill="#8C5F3B"/>
<path d="M14.4227 14.5987C15.0792 14.7438 16.1811 17.8923 15.5914 20.7834C15.6293 24.3519 15.2162 27.6665 14.5597 27.5215C13.9033 27.3764 13.3404 24.3659 13.3026 20.7974C13.2648 17.2289 13.7663 14.4537 14.4227 14.5987Z" fill="#8C5F3B"/>
<path d="M23.5812 24.1128C28.0326 28.5713 31.3902 32.4388 31.0807 32.7512C30.7712 33.0635 31.2712 35.7146 22.196 25.5108C16.2436 20.3886 13.9935 19.3393 14.9609 16.6056C15.2704 16.2932 19.1298 19.6543 23.5812 24.1128Z" fill="#8C5F3B"/>
<path d="M14.3496 14.6865C14.4964 15.3459 17.6322 16.4419 20.5055 15.838C24.0549 15.8625 27.3501 15.4345 27.2033 14.7751C27.0565 14.1156 24.0601 13.5612 20.5107 13.5368C16.9613 13.5123 14.2029 14.027 14.3496 14.6865Z" fill="#8C5F3B"/>
<path d="M23.8511 23.8551C28.3025 28.3135 32.162 31.6746 32.4715 31.3623C32.781 31.0499 35.4197 31.5424 25.2363 22.4571C20.1191 16.4919 19.0669 14.2337 16.3516 15.2167C16.0421 15.529 19.3998 19.3966 23.8511 23.8551Z" fill="#8C5F3B"/>
<path d="M14.252 14.792C14.3988 15.4514 18.3049 19.7553 20.4078 15.9435C23.9572 15.9679 27.2524 15.54 27.1056 14.8806C26.9588 14.2211 23.9625 13.6667 20.413 13.6422C16.8636 13.6178 14.1052 14.1325 14.252 14.792Z" fill="#8C5F3B"/>
<rect width="1.67257" height="16.3846" transform="matrix(0.703849 -0.710349 0.706543 0.70767 13.8203 15.2646)" fill="#8C5F3B"/>
<ellipse cx="2.45901" cy="2.4592" rx="2.45901" ry="2.4592" transform="matrix(0.703849 -0.710349 0.706543 0.70767 8.39453 12.2627)" fill="#8C5F3B"/>
<ellipse cx="2.45973" cy="2.45848" rx="2.45973" ry="2.45848" transform="matrix(0.703849 0.710349 -0.706523 0.70769 57.8867 8.66797)" fill="#283790"/>
<path d="M55.5411 14.7516C55.3945 15.411 52.2592 16.506 49.3858 15.9014C45.8364 15.9248 42.5411 15.496 42.6877 14.8366C42.8343 14.1771 45.8305 13.6236 49.3798 13.6001C52.9292 13.5766 55.6877 14.0922 55.5411 14.7516Z" fill="#283790"/>
<path d="M46.0465 23.9169C41.5966 28.3742 37.7382 31.7343 37.4286 31.4218C37.119 31.1094 34.4805 31.6012 44.6609 22.5185C49.7762 16.5547 50.8277 14.2968 53.5433 15.2805C53.8529 15.593 50.4965 19.4596 46.0465 23.9169Z" fill="#283790"/>
<path d="M55.4445 14.6617C54.7881 14.8066 53.6871 17.9549 54.2777 20.8462C54.241 24.4147 54.6551 27.7295 55.3115 27.5846C55.9679 27.4397 56.5298 24.4294 56.5665 20.8608C56.6032 17.2923 56.1009 14.5168 55.4445 14.6617Z" fill="#283790"/>
<path d="M46.2958 24.1716C41.8459 28.6289 38.4895 32.4956 38.7991 32.808C39.1087 33.1205 38.6096 35.7714 47.6814 25.57C53.6322 20.4495 55.8819 19.4007 54.9137 16.6667C54.6041 16.3543 50.7458 19.7143 46.2958 24.1716Z" fill="#283790"/>
<path d="M55.3351 14.5592C54.6787 14.7041 50.3844 18.6138 54.1683 20.7436C54.1316 24.3122 54.5457 27.627 55.2021 27.4821C55.8585 27.3372 56.4204 24.3268 56.4571 20.7583C56.4938 17.1897 55.9915 14.4143 55.3351 14.5592Z" fill="#283790"/>
<rect width="1.67307" height="16.3798" transform="matrix(0.703849 0.710349 -0.706523 0.70769 54.8789 14.124)" fill="#283790"/>
<ellipse cx="2.45973" cy="2.45848" rx="2.45973" ry="2.45848" transform="matrix(0.703849 0.710349 -0.706523 0.70769 57.8867 8.66895)" fill="#283790"/>
<path d="M55.5489 14.7535C55.4024 15.4129 52.267 16.508 49.3936 15.9033C45.8442 15.9268 42.5489 15.4979 42.6955 14.8385C42.8421 14.1791 45.8383 13.6255 49.3876 13.602C52.937 13.5786 55.6955 14.0941 55.5489 14.7535Z" fill="#283790"/>
<path d="M46.0543 23.9189C41.6044 28.3762 37.746 31.7362 37.4364 31.4238C37.1268 31.1113 34.4884 31.6031 44.6687 22.5205C49.784 16.5567 50.8356 14.2987 53.5511 15.2825C53.8607 15.5949 50.5043 19.4616 46.0543 23.9189Z" fill="#283790"/>
<path d="M55.4562 14.6637C54.7998 14.8086 53.6988 17.9568 54.2894 20.8481C54.2527 24.4167 54.6668 27.7315 55.3232 27.5866C55.9796 27.4417 56.5415 24.4313 56.5782 20.8628C56.6149 17.2942 56.1126 14.5188 55.4562 14.6637Z" fill="#283790"/>
<path d="M46.3076 24.1736C41.8576 28.6309 38.5012 32.4975 38.8108 32.81C39.1204 33.1224 38.6213 35.7734 47.6932 25.572C53.644 20.4514 55.8936 19.4027 54.9255 16.6687C54.6159 16.3562 50.7575 19.7163 46.3076 24.1736Z" fill="#283790"/>
<path d="M55.3585 14.5612C54.7022 14.706 50.4078 18.6158 54.1918 20.7456C54.155 24.3142 54.5692 27.6289 55.2256 27.484C55.8819 27.3391 56.4438 24.3288 56.4806 20.7602C56.5173 17.1917 56.0149 14.4163 55.3585 14.5612Z" fill="#283790"/>
<rect width="1.67307" height="16.3798" transform="matrix(0.703849 0.710349 -0.706523 0.70769 54.8867 14.125)" fill="#283790"/>
<ellipse cx="2.45973" cy="2.45848" rx="2.45973" ry="2.45848" transform="matrix(0.703849 0.710349 -0.706523 0.70769 57.8984 8.66895)" fill="#283790"/>
<ellipse cx="2.46574" cy="2.45245" rx="2.46574" ry="2.45245" transform="matrix(2.37894e-09 1 -1 -0.000302762 70 32.3184)" fill="#FFCB0A"/>
<path d="M64.0711 34.9624C63.5042 35.3252 60.5136 33.8756 58.902 31.4084C56.3704 28.9062 54.3364 26.2641 54.9033 25.9012C55.4702 25.5383 57.982 27.2726 60.5136 29.7747C63.0452 32.2769 64.638 34.5995 64.0711 34.9624Z" fill="#FFCB0A"/>
<path d="M50.905 34.7135C44.6221 34.7116 39.5288 34.3526 39.5288 33.9116C39.5288 33.4707 37.3138 31.9465 50.905 32.74C58.7172 32.1474 61.0477 31.2949 62.2813 33.9185C62.2813 34.3595 57.1879 34.7154 50.905 34.7135Z" fill="#FFCB0A"/>
<path d="M64.0711 34.8385C63.5042 34.4753 60.5136 35.9231 58.902 38.3893C56.3704 40.89 54.3364 43.5309 54.9033 43.8941C55.4702 44.2573 57.982 42.5246 60.5136 40.0239C63.0452 37.5233 64.638 35.2017 64.0711 34.8385Z" fill="#FFCB0A"/>
<path d="M50.905 35.0765C44.6221 35.0746 39.5288 35.4305 39.5288 35.8715C39.5288 36.3124 37.3138 37.8352 50.905 37.0499C58.7172 37.6473 61.0477 38.5012 62.2812 35.8784C62.2812 35.4374 57.1879 35.0784 50.905 35.0765Z" fill="#FFCB0A"/>
<path d="M64.0711 34.692C63.5042 34.3288 57.7161 34.0496 58.902 38.2429C56.3704 40.7435 54.3364 43.3844 54.9033 43.7476C55.4702 44.1108 57.982 42.3781 60.5136 39.8775C63.0452 37.3768 64.638 35.0552 64.0711 34.692Z" fill="#FFCB0A"/>
<rect width="1.67715" height="16.3396" transform="matrix(3.03116e-09 1 -1 -0.000302759 64.043 34.0498)" fill="#FFCB0A"/>
<ellipse cx="2.46574" cy="2.45245" rx="2.46574" ry="2.45245" transform="matrix(2.04897e-09 1 -1 -0.000302757 70 32.3174)" fill="#FFCB0A"/>
<path d="M64.0711 34.9624C63.5042 35.3252 60.5136 33.8756 58.902 31.4084C56.3704 28.9062 54.3364 26.2641 54.9033 25.9012C55.4702 25.5383 57.982 27.2726 60.5136 29.7747C63.0452 32.2769 64.638 34.5995 64.0711 34.9624Z" fill="#FFCB0A"/>
<path d="M50.905 34.7135C44.6221 34.7116 39.5288 34.3526 39.5288 33.9116C39.5288 33.4707 37.3138 31.9465 50.905 32.74C58.7172 32.1474 61.0477 31.2949 62.2813 33.9185C62.2813 34.3595 57.1879 34.7154 50.905 34.7135Z" fill="#FFCB0A"/>
<path d="M64.0711 34.8385C63.5042 34.4752 60.5136 35.9231 58.902 38.3893C56.3704 40.89 54.3364 43.5309 54.9033 43.8941C55.4702 44.2573 57.982 42.5246 60.5136 40.0239C63.0452 37.5233 64.638 35.2017 64.0711 34.8385Z" fill="#FFCB0A"/>
<path d="M50.905 35.0765C44.6221 35.0746 39.5288 35.4305 39.5288 35.8715C39.5288 36.3124 37.3138 37.8352 50.905 37.0499C58.7172 37.6473 61.0477 38.5012 62.2812 35.8784C62.2812 35.4374 57.1879 35.0784 50.905 35.0765Z" fill="#FFCB0A"/>
<path d="M64.0711 34.692C63.5042 34.3288 57.7161 34.0496 58.902 38.2429C56.3704 40.7435 54.3364 43.3844 54.9033 43.7476C55.4702 44.1108 57.982 42.3781 60.5136 39.8775C63.0452 37.3768 64.638 35.0552 64.0711 34.692Z" fill="#FFCB0A"/>
<rect width="1.67715" height="16.3396" transform="matrix(3.07346e-09 1 -1 -0.000302755 64.043 34.0498)" fill="#FFCB0A"/>
<ellipse cx="2.46574" cy="2.45245" rx="2.46574" ry="2.45245" transform="matrix(3.58561e-09 1 -1 -0.000302757 70 32.3164)" fill="#FFCB0A"/>
<ellipse cx="2.45901" cy="2.4592" rx="2.45901" ry="2.4592" transform="matrix(-0.703849 0.71035 -0.706543 -0.70767 61.9375 58.1016)" fill="#3AB549"/>
<path d="M55.8976 55.7655C55.2411 55.6204 54.1392 52.4719 54.7289 49.5808C54.691 46.0123 55.1042 42.6977 55.7606 42.8428C56.4171 42.9879 56.9799 45.9983 57.0177 49.5668C57.0555 53.1353 56.554 55.9106 55.8976 55.7655Z" fill="#3AB549"/>
<path d="M46.7391 46.2515C42.2877 41.793 38.9301 37.9255 39.2396 37.6131C39.5491 37.3007 39.0492 34.6497 48.1243 44.8535C54.0767 49.9756 56.3268 51.025 55.3594 53.7587C55.0499 54.071 51.1905 50.71 46.7391 46.2515Z" fill="#3AB549"/>
<path d="M55.9863 55.6778C55.8395 55.0183 52.7038 53.9224 49.8305 54.5263C46.281 54.5018 42.9859 54.9297 43.1327 55.5892C43.2794 56.2486 46.2758 56.803 49.8252 56.8275C53.3747 56.852 56.1331 56.3372 55.9863 55.6778Z" fill="#3AB549"/>
<path d="M46.4809 46.5092C42.0295 42.0507 38.1701 38.6897 37.8606 39.002C37.5511 39.3144 34.9124 38.8218 45.0957 47.9072C50.2129 53.8723 51.2651 56.1305 53.9804 55.1476C54.2899 54.8352 50.9323 50.9677 46.4809 46.5092Z" fill="#3AB549"/>
<path d="M56.08 55.5723C55.9332 54.9128 52.0271 50.6089 49.9242 54.4208C46.3748 54.3963 43.0796 54.8243 43.2264 55.4837C43.3732 56.1431 46.3696 56.6976 49.919 56.722C53.4684 56.7465 56.2268 56.2317 56.08 55.5723Z" fill="#3AB549"/>
<rect width="1.67258" height="16.3846" transform="matrix(-0.703849 0.71035 -0.706543 -0.70767 56.5 55.0986)" fill="#3AB549"/>
<ellipse cx="2.45901" cy="2.4592" rx="2.45901" ry="2.4592" transform="matrix(-0.703849 0.71035 -0.706543 -0.70767 61.9375 58.1016)" fill="#3AB549"/>
<path d="M55.8976 55.7655C55.2411 55.6204 54.1392 52.4719 54.7289 49.5808C54.691 46.0123 55.1042 42.6977 55.7606 42.8428C56.4171 42.9879 56.9799 45.9983 57.0177 49.5668C57.0555 53.1353 56.554 55.9106 55.8976 55.7655Z" fill="#3AB549"/>
<path d="M46.7391 46.2515C42.2877 41.793 38.9301 37.9255 39.2396 37.6131C39.5491 37.3007 39.0492 34.6497 48.1243 44.8535C54.0767 49.9756 56.3268 51.025 55.3594 53.7587C55.0499 54.071 51.1905 50.71 46.7391 46.2515Z" fill="#3AB549"/>
<path d="M55.9863 55.6778C55.8395 55.0183 52.7038 53.9224 49.8305 54.5263C46.281 54.5018 42.9859 54.9297 43.1327 55.5892C43.2794 56.2486 46.2758 56.803 49.8252 56.8275C53.3747 56.852 56.1331 56.3372 55.9863 55.6778Z" fill="#3AB549"/>
<path d="M46.4809 46.5092C42.0295 42.0507 38.1701 38.6897 37.8606 39.002C37.5511 39.3144 34.9124 38.8218 45.0957 47.9072C50.2129 53.8723 51.2651 56.1305 53.9804 55.1476C54.2899 54.8352 50.9323 50.9677 46.4809 46.5092Z" fill="#3AB549"/>
<path d="M56.08 55.5723C55.9332 54.9128 52.0271 50.6089 49.9242 54.4208C46.3748 54.3963 43.0796 54.8243 43.2264 55.4837C43.3732 56.1431 46.3696 56.6976 49.919 56.722C53.4684 56.7465 56.2268 56.2317 56.08 55.5723Z" fill="#3AB549"/>
<rect width="1.67258" height="16.3846" transform="matrix(-0.703849 0.71035 -0.706543 -0.70767 56.5 55.0986)" fill="#3AB549"/>
<ellipse cx="2.45901" cy="2.4592" rx="2.45901" ry="2.4592" transform="matrix(-0.703849 0.71035 -0.706543 -0.70767 61.9336 58.1016)" fill="#3AB549"/>
<ellipse cx="2.45246" cy="2.46573" rx="2.45246" ry="2.46573" transform="matrix(-1 3.42694e-10 9.82984e-05 -1 37.8359 70)" fill="#29A3D9"/>
<path d="M35.1912 64.0361C34.8302 63.4661 36.2714 60.4593 38.725 58.839C41.2132 56.2937 43.8407 54.2487 44.2018 54.8186C44.5628 55.3886 42.8384 57.914 40.3502 60.4593C37.862 63.0046 35.5523 64.606 35.1912 64.0361Z" fill="#29A3D9"/>
<path d="M35.4349 50.8014C35.4355 44.4845 35.7916 39.3636 36.2301 39.3636C36.6687 39.3636 38.1842 37.1366 37.3977 50.8014C37.9887 58.6559 38.8371 60.999 36.2279 62.2393C35.7893 62.2393 35.4343 57.1184 35.4349 50.8014Z" fill="#29A3D9"/>
<path d="M35.315 64.0341C35.6761 63.4642 34.2355 60.4574 31.7822 58.837C29.2945 56.2917 26.6674 54.2467 26.3063 54.8167C25.9451 55.3866 27.669 57.912 30.1567 60.4574C32.6444 63.0027 34.9538 64.6041 35.315 64.0341Z" fill="#29A3D9"/>
<path d="M35.0752 50.7995C35.0758 44.4825 34.7208 39.3616 34.2822 39.3616C33.8436 39.3616 32.3286 37.1347 33.1123 50.7995C32.5198 58.6539 31.671 60.9971 34.2799 62.2373C34.7185 62.2373 35.0745 57.1164 35.0752 50.7995Z" fill="#29A3D9"/>
<path d="M35.4595 64.0361C35.8207 63.4661 36.0971 57.6466 31.9267 58.839C29.439 56.2937 26.8119 54.2487 26.4508 54.8186C26.0896 55.3886 27.8135 57.914 30.3012 60.4593C32.7889 63.0046 35.0984 64.606 35.4595 64.0361Z" fill="#29A3D9"/>
<rect width="1.66812" height="16.4281" transform="matrix(-1 1.34771e-10 9.82983e-05 -1 36.0977 64.0049)" fill="#29A3D9"/>
<ellipse cx="2.45246" cy="2.46573" rx="2.45246" ry="2.46573" transform="matrix(-1 3.42694e-10 9.82984e-05 -1 37.8359 70)" fill="#29A3D9"/>
<path d="M35.1912 64.0361C34.8302 63.4661 36.2714 60.4593 38.725 58.839C41.2132 56.2937 43.8407 54.2487 44.2018 54.8186C44.5628 55.3886 42.8384 57.914 40.3502 60.4593C37.862 63.0046 35.5523 64.606 35.1912 64.0361Z" fill="#29A3D9"/>
<path d="M35.4349 50.8014C35.4355 44.4845 35.7916 39.3636 36.2301 39.3636C36.6687 39.3636 38.1842 37.1366 37.3977 50.8014C37.9887 58.6559 38.8371 60.999 36.2279 62.2393C35.7893 62.2393 35.4343 57.1184 35.4349 50.8014Z" fill="#29A3D9"/>
<path d="M35.315 64.0341C35.6761 63.4642 34.2355 60.4574 31.7822 58.837C29.2945 56.2917 26.6674 54.2467 26.3063 54.8167C25.9451 55.3866 27.669 57.912 30.1567 60.4574C32.6444 63.0027 34.9538 64.6041 35.315 64.0341Z" fill="#29A3D9"/>
<path d="M35.0752 50.7995C35.0758 44.4825 34.7208 39.3616 34.2822 39.3616C33.8436 39.3616 32.3286 37.1347 33.1123 50.7995C32.5198 58.6539 31.671 60.9971 34.2799 62.2373C34.7185 62.2373 35.0745 57.1164 35.0752 50.7995Z" fill="#29A3D9"/>
<path d="M35.4595 64.0361C35.8207 63.4661 36.0971 57.6466 31.9267 58.839C29.439 56.2937 26.8119 54.2487 26.4508 54.8186C26.0896 55.3886 27.8135 57.914 30.3012 60.4593C32.7889 63.0046 35.0984 64.606 35.4595 64.0361Z" fill="#29A3D9"/>
<rect width="1.66812" height="16.4281" transform="matrix(-1 1.34771e-10 9.82983e-05 -1 36.0977 64.0078)" fill="#29A3D9"/>
<ellipse cx="2.45246" cy="2.46573" rx="2.45246" ry="2.46573" transform="matrix(-1 1.34259e-10 9.82983e-05 -1 37.8281 70)" fill="#29A3D9"/>
<ellipse cx="2.45906" cy="2.45914" rx="2.45906" ry="2.45914" transform="matrix(-0.703849 -0.710349 0.706543 -0.70767 11.6406 61.0566)" fill="#6D6E71"/>
<path d="M13.9746 54.9763C14.1214 54.3168 17.2571 53.221 20.1304 53.8249C23.6798 53.8006 26.975 54.2286 26.8283 54.888C26.6815 55.5474 23.6851 56.1018 20.1357 56.1262C16.5863 56.1505 13.8278 55.6357 13.9746 54.9763Z" fill="#6D6E71"/>
<path d="M23.4759 45.8101C27.9272 41.3518 31.7866 37.9908 32.0961 38.3032C32.4056 38.6155 35.0442 38.123 24.8611 47.2082C19.7441 53.1732 18.6919 55.4314 15.9766 54.4483C15.6671 54.136 19.0246 50.2685 23.4759 45.8101Z" fill="#6D6E71"/>
<path d="M14.0676 55.0663C14.724 54.9213 15.8259 51.7728 15.2361 48.8817C15.2739 45.3132 14.8607 41.9985 14.2042 42.1436C13.5478 42.2887 12.985 45.2991 12.9473 48.8676C12.9096 52.4361 13.4111 55.2114 14.0676 55.0663Z" fill="#6D6E71"/>
<path d="M23.2256 45.5535C27.6769 41.0951 31.0344 37.2277 30.7249 36.9153C30.4154 36.6029 30.9153 33.9519 21.8404 44.1554C15.888 49.2775 13.638 50.3268 14.6054 53.0605C14.915 53.3728 18.7743 50.0118 23.2256 45.5535Z" fill="#6D6E71"/>
<path d="M14.1535 55.1698C14.81 55.0248 19.1054 51.114 15.3221 48.9852C15.3598 45.4167 14.9466 42.1021 14.2902 42.2471C13.6337 42.3922 13.071 45.4026 13.0332 48.9711C12.9955 52.5396 13.4971 55.3149 14.1535 55.1698Z" fill="#6D6E71"/>
<rect width="1.67261" height="16.3842" transform="matrix(-0.703849 -0.710349 0.706543 -0.70767 14.6523 55.6025)" fill="#6D6E71"/>
<ellipse cx="2.45906" cy="2.45914" rx="2.45906" ry="2.45914" transform="matrix(-0.703849 -0.710349 0.706543 -0.70767 11.6367 61.0557)" fill="#6D6E71"/>
<path d="M13.9707 54.9753C14.1175 54.3159 17.2532 53.22 20.1265 53.824C23.6759 53.7996 26.9711 54.2276 26.8243 54.887C26.6776 55.5465 23.6812 56.1008 20.1318 56.1252C16.5823 56.1496 13.8239 55.6348 13.9707 54.9753Z" fill="#6D6E71"/>
<path d="M23.472 45.8092C27.9233 41.3508 31.7826 37.9898 32.0922 38.3022C32.4017 38.6146 35.0403 38.1221 24.8572 47.2072C19.7402 53.1722 18.688 55.4304 15.9727 54.4474C15.6632 54.135 19.0207 50.2675 23.472 45.8092Z" fill="#6D6E71"/>
<path d="M14.0598 55.0624C14.7162 54.9173 15.8181 51.7689 15.2283 48.8778C15.266 45.3092 14.8529 41.9946 14.1964 42.1397C13.54 42.2848 12.9772 45.2952 12.9395 48.8637C12.9018 52.4322 13.4033 55.2075 14.0598 55.0624Z" fill="#6D6E71"/>
<path d="M23.2178 45.5496C27.6691 41.0912 31.0266 37.2237 30.7171 36.9114C30.4076 36.599 30.9075 33.948 21.8326 44.1515C15.8802 49.2736 13.6302 50.3228 14.5976 53.0566C14.9071 53.3689 18.7665 50.0079 23.2178 45.5496Z" fill="#6D6E71"/>
<path d="M14.1574 55.1688C14.8139 55.0238 19.1093 51.113 15.326 48.9842C15.3637 45.4157 14.9505 42.1011 14.2941 42.2461C13.6376 42.3912 13.0749 45.4016 13.0371 48.9701C12.9994 52.5387 13.501 55.3139 14.1574 55.1688Z" fill="#6D6E71"/>
<rect width="1.67261" height="16.3842" transform="matrix(-0.703849 -0.710349 0.706543 -0.70767 14.6406 55.6006)" fill="#6D6E71"/>
<ellipse cx="2.45906" cy="2.45914" rx="2.45906" ry="2.45914" transform="matrix(-0.703849 -0.710349 0.706543 -0.70767 11.6328 61.0557)" fill="#6D6E71"/>
<ellipse cx="2.46573" cy="2.45246" rx="2.46573" ry="2.45246" transform="matrix(5.98899e-09 -1 1 0.00020199 0 37.123)" fill="#ED207C"/>
<path d="M5.93277 34.4828C6.49964 34.1199 9.49029 35.5692 11.1019 38.0363C13.6335 40.5382 15.6675 43.1801 15.1006 43.5431C14.5338 43.906 12.0219 42.172 9.49029 39.6701C6.95866 37.1682 5.3659 34.8458 5.93277 34.4828Z" fill="#ED207C"/>
<path d="M19.0911 34.7278C25.3741 34.729 30.4674 35.0875 30.4674 35.5285C30.4674 35.9694 32.6824 37.4933 19.0911 36.7012C11.2789 37.2946 8.94842 38.1473 7.71484 35.5239C7.71484 35.0829 12.8082 34.7265 19.0911 34.7278Z" fill="#ED207C"/>
<path d="M5.92886 34.6086C6.49573 34.9718 9.48638 33.5237 11.098 31.0572C13.6296 28.5563 15.6636 25.9152 15.0967 25.5521C14.5299 25.1889 12.018 26.9219 9.48638 29.4228C6.95475 31.9237 5.36199 34.2454 5.92886 34.6086Z" fill="#ED207C"/>
<path d="M19.0872 34.3676C25.3702 34.3689 30.4635 34.0125 30.4635 33.5716C30.4635 33.1306 32.6785 31.6076 19.0872 32.3942C11.275 31.7977 8.94451 30.944 7.71094 33.567C7.71094 34.0079 12.8043 34.3664 19.0872 34.3676Z" fill="#ED207C"/>
<path d="M5.92886 34.7522C6.49573 35.1153 12.2839 35.3939 11.098 31.2008C13.6296 28.6999 15.6636 26.0588 15.0967 25.6956C14.5299 25.3325 12.018 27.0655 9.48638 29.5663C6.95475 32.0672 5.36199 34.389 5.92886 34.7522Z" fill="#ED207C"/>
<rect width="1.67715" height="16.3397" transform="matrix(2.8397e-09 -1 1 0.000201989 5.95703 35.3916)" fill="#ED207C"/>
<ellipse cx="2.46573" cy="2.45246" rx="2.46573" ry="2.45246" transform="matrix(5.09741e-09 -1 1 0.000201991 0 37.123)" fill="#ED207C"/>
<path d="M5.93277 34.4828C6.49964 34.1199 9.49029 35.5692 11.1019 38.0363C13.6335 40.5382 15.6675 43.1801 15.1006 43.5431C14.5338 43.906 12.0219 42.172 9.49029 39.6701C6.95866 37.1682 5.3659 34.8458 5.93277 34.4828Z" fill="#ED207C"/>
<path d="M19.0911 34.7278C25.3741 34.729 30.4674 35.0875 30.4674 35.5285C30.4674 35.9694 32.6824 37.4933 19.0911 36.7012C11.2789 37.2946 8.94842 38.1473 7.71484 35.5239C7.71484 35.0829 12.8082 34.7265 19.0911 34.7278Z" fill="#ED207C"/>
<path d="M5.92886 34.6086C6.49573 34.9718 9.48638 33.5237 11.098 31.0572C13.6296 28.5563 15.6636 25.9152 15.0967 25.5521C14.5299 25.1889 12.018 26.9219 9.48638 29.4228C6.95475 31.9237 5.36199 34.2454 5.92886 34.6086Z" fill="#ED207C"/>
<path d="M19.0872 34.3676C25.3702 34.3689 30.4635 34.0125 30.4635 33.5716C30.4635 33.1306 32.6785 31.6076 19.0872 32.3942C11.275 31.7977 8.94451 30.944 7.71094 33.567C7.71094 34.0079 12.8043 34.3664 19.0872 34.3676Z" fill="#ED207C"/>
<path d="M5.92886 34.7522C6.49573 35.1153 12.2839 35.3939 11.098 31.2008C13.6296 28.6999 15.6636 26.0588 15.0967 25.6956C14.5299 25.3325 12.018 27.0655 9.48638 29.5663C6.95475 32.0672 5.36199 34.389 5.92886 34.7522Z" fill="#ED207C"/>
<rect width="1.67715" height="16.3397" transform="matrix(2.44665e-09 -1 1 0.00020199 5.95703 35.3916)" fill="#ED207C"/>
<ellipse cx="2.46573" cy="2.45246" rx="2.46573" ry="2.45246" transform="matrix(2.4679e-09 -1 1 0.000454478 0 37.123)" fill="#ED207C"/>
<path d="M31.9739 32.6024C31.7931 32.2204 31.9281 31.7941 32.2979 31.5792L33.4547 30.9071L34.4996 30.2235C34.5555 30.187 34.6155 30.1554 34.6788 30.1294L34.7175 30.1134C35.1631 29.9296 35.7114 30.0539 36.039 30.413V30.413C36.4812 30.8976 36.3425 31.5951 35.7513 31.8602L34.5837 32.3839L33.4096 33.0466C32.9096 33.3288 32.2162 33.1142 31.9739 32.6024V32.6024Z" fill="black"/>
<rect x="31.668" y="37.126" width="7.19472" height="1.97965" rx="0.989825" fill="black"/>
<rect x="36.4609" y="29.8994" width="8.19047" height="2.33578" rx="1.16789" transform="rotate(90 36.4609 29.8994)" fill="black"/>
</svg>
