<svg width="18" height="23" viewBox="0 0 18 23" fill="none" xmlns="http://www.w3.org/2000/svg">
<path d="M9 12.2709C8.65744 12.2669 8.32196 12.3657 8.03858 12.5539C7.7553 12.7421 7.53761 13.0106 7.4151 13.3234C7.29259 13.6361 7.27099 13.9781 7.35311 14.3033C7.43535 14.6283 7.61749 14.921 7.875 15.1419V16.6709C7.875 16.9626 7.99358 17.2425 8.20451 17.4487C8.41545 17.655 8.70165 17.7709 9 17.7709C9.29835 17.7709 9.58455 17.655 9.79549 17.4487C10.0064 17.2425 10.125 16.9626 10.125 16.6709V15.1419C10.3825 14.921 10.5646 14.6283 10.6469 14.3033C10.729 13.9781 10.7074 13.6361 10.5849 13.3234C10.4624 13.0106 10.2447 12.7421 9.96142 12.5539C9.67804 12.3657 9.34256 12.2669 9 12.2709ZM14.625 7.8709V5.6709C14.625 4.21221 14.0323 2.81326 12.9774 1.78182C11.9226 0.750356 10.4919 0.170898 9 0.170898C7.50814 0.170898 6.07742 0.750356 5.02253 1.78182C3.96763 2.81326 3.375 4.21221 3.375 5.6709V7.8709C2.47989 7.8709 1.62145 8.21858 0.988515 8.83745C0.355579 9.45633 0 10.2957 0 11.1709V18.8709C0 19.7461 0.355579 20.5855 0.988515 21.2043C1.62145 21.8232 2.47989 22.1709 3.375 22.1709H14.625C15.5201 22.1709 16.3785 21.8232 17.0115 21.2043C17.6444 20.5855 18 19.7461 18 18.8709V11.1709C18 10.2957 17.6444 9.45633 17.0115 8.83745C16.3785 8.21858 15.5201 7.8709 14.625 7.8709ZM5.625 5.6709C5.625 4.79568 5.98058 3.95632 6.61352 3.33745C7.24646 2.71858 8.10495 2.3709 9 2.3709C9.89505 2.3709 10.7535 2.71858 11.3865 3.33745C12.0194 3.95632 12.375 4.79568 12.375 5.6709V7.8709H5.625V5.6709ZM15.75 18.8709C15.75 19.1626 15.6314 19.4425 15.4205 19.6487C15.2095 19.855 14.9234 19.9709 14.625 19.9709H3.375C3.07663 19.9709 2.79048 19.855 2.5795 19.6487C2.36853 19.4425 2.25 19.1626 2.25 18.8709V11.1709C2.25 10.8792 2.36853 10.5993 2.5795 10.3931C2.79048 10.1868 3.07663 10.0709 3.375 10.0709H14.625C14.9234 10.0709 15.2095 10.1868 15.4205 10.3931C15.6314 10.5993 15.75 10.8792 15.75 11.1709V18.8709Z" fill="#B5B5B5"/>
</svg>
