<svg width="363" height="318" viewBox="0 0 363 318" fill="none" xmlns="http://www.w3.org/2000/svg">
<g clip-path="url(#clip0_26_264)">
<path d="M277.692 194.845C277.322 193.714 274.517 194.212 274.247 193.201C273.979 192.193 276.671 191.348 278.736 188.508C279.108 187.996 281.455 184.769 280.555 183.411C278.849 180.838 266.98 187.247 264.132 183.651C263.506 182.861 263.249 181.506 261.387 178.985C260.646 177.982 260.17 177.498 259.602 177.512C258.796 177.532 258.508 178.539 257.241 180.362C255.342 183.096 254.656 182.753 253.405 184.993C252.476 186.656 252.366 187.719 251.696 187.781C250.748 187.87 250.356 185.799 249.198 185.719C248.016 185.637 246.833 187.683 246.247 189.281C245.146 192.281 245.828 194.573 245.979 196.858C246.143 199.341 245.757 202.976 243.055 207.641L217.562 248.185C223.037 239.92 238.578 217.381 244.839 209.114C246.647 206.728 248.589 204.331 251.579 203.881C254.457 203.446 257.959 204.868 262.848 204.785C263.418 204.776 265.007 204.728 265.394 203.888C265.713 203.193 264.92 202.589 265.209 201.935C265.596 201.059 267.337 201.435 269.711 200.853C271.384 200.443 272.521 199.765 273.499 199.182C273.794 199.006 278.185 196.35 277.692 194.845Z" fill="#3AD569"/>
<path d="M210.925 204.312C210.262 204.167 209.697 205.685 209.122 205.525C208.549 205.366 208.911 203.803 208.11 201.972C207.966 201.642 207.056 199.561 206.129 199.61C204.372 199.704 204.098 207.367 201.508 207.726C200.939 207.804 200.199 207.539 198.422 207.724C197.715 207.798 197.34 207.891 197.183 208.173C196.96 208.574 197.372 209.006 197.903 210.152C198.699 211.872 198.332 212.109 199.073 213.368C199.622 214.303 200.113 214.664 199.951 215.01C199.721 215.5 198.59 215.095 198.216 215.639C197.835 216.194 198.499 217.364 199.116 218.113C200.273 219.517 201.597 219.845 202.764 220.43C204.032 221.066 205.708 222.304 207.222 224.974L219.801 249.162C217.317 244.095 210.719 229.978 208.461 224.525C207.809 222.951 207.191 221.308 207.832 219.713C208.45 218.177 210.159 216.872 211.529 214.453C211.689 214.17 212.124 213.378 211.822 212.946C211.573 212.589 211.047 212.804 210.809 212.474C210.49 212.031 211.177 211.286 211.576 209.956C211.857 209.017 211.851 208.265 211.847 207.617C211.845 207.422 211.807 204.504 210.925 204.312Z" fill="#3AD569"/>
<path d="M223.473 210.213L223.868 206.569L224.111 206.34C225.233 205.281 225.934 204.16 226.198 203.006C226.24 202.822 226.272 202.637 226.305 202.448C226.437 201.699 226.6 200.767 227.321 199.8C227.725 199.261 228.793 198.043 229.895 198.468C230.192 198.579 230.393 198.772 230.533 198.976C230.568 198.94 230.604 198.905 230.642 198.867C231.118 198.405 231.451 198.236 231.771 198.073C232.018 197.948 232.272 197.819 232.703 197.475C232.892 197.324 233.043 197.188 233.171 197.075C233.557 196.73 234.052 196.326 234.729 196.486C235.447 196.682 235.693 197.366 235.857 197.818C236.148 198.626 236.238 199.181 236.298 199.549C236.319 199.684 236.344 199.835 236.363 199.885C236.52 200.28 238.493 200.382 239.235 200.425C240.904 200.515 242.348 200.594 242.695 201.734C242.944 202.55 242.425 203.44 241.107 204.449C240.696 204.764 240.286 204.98 239.929 205.142C240.148 205.35 240.324 205.632 240.334 206.016C240.359 206.926 239.424 207.625 237.556 208.095C237.091 208.214 236.467 208.37 235.65 208.331C235.265 208.312 234.928 208.253 234.641 208.198C234.598 208.361 234.519 208.531 234.378 208.693C233.962 209.168 233.29 209.288 232.379 209.021C231.373 208.741 230.578 208.36 229.876 208.026C229.264 207.734 228.735 207.485 228.292 207.417C227.467 207.302 226.698 207.81 225.778 208.486L223.473 210.213Z" fill="#3AD569"/>
<path d="M230.055 189.457L226.424 190L226.14 189.823C224.83 189.009 223.565 188.615 222.38 188.654C222.192 188.66 222.004 188.676 221.812 188.692C221.053 188.755 220.109 188.834 218.988 188.382C218.364 188.129 216.912 187.406 217.045 186.235C217.077 185.919 217.213 185.677 217.375 185.49C217.332 185.465 217.289 185.44 217.242 185.412C216.674 185.07 216.425 184.791 216.186 184.523C216.002 184.317 215.813 184.104 215.37 183.775C215.176 183.631 215.007 183.519 214.864 183.425C214.432 183.139 213.915 182.764 213.898 182.07C213.906 181.327 214.506 180.915 214.903 180.643C215.612 180.157 216.127 179.929 216.469 179.778C216.594 179.723 216.734 179.661 216.777 179.63C217.12 179.378 216.719 177.447 216.572 176.72C216.237 175.086 215.946 173.672 216.963 173.047C217.691 172.6 218.685 172.875 219.997 173.892C220.406 174.208 220.72 174.549 220.967 174.854C221.113 174.589 221.342 174.348 221.712 174.24C222.587 173.986 223.501 174.712 224.431 176.396C224.663 176.814 224.973 177.377 225.142 178.176C225.222 178.553 225.25 178.893 225.27 179.184C225.439 179.184 225.624 179.217 225.816 179.313C226.382 179.594 226.669 180.212 226.641 181.16C226.625 182.202 226.457 183.066 226.311 183.829C226.184 184.494 226.077 185.068 226.123 185.513C226.221 186.338 226.908 186.952 227.797 187.669L230.055 189.457Z" fill="#3AD569"/>
<path d="M230.543 178.571L230.938 174.927L231.181 174.698C232.303 173.64 233.005 172.518 233.268 171.364C233.31 171.181 233.342 170.995 233.376 170.806C233.507 170.057 233.67 169.126 234.391 168.158C234.795 167.619 235.864 166.401 236.965 166.826C237.263 166.938 237.464 167.13 237.603 167.334C237.638 167.299 237.674 167.263 237.712 167.225C238.188 166.763 238.521 166.594 238.842 166.431C239.088 166.306 239.343 166.177 239.773 165.833C239.962 165.683 240.114 165.547 240.241 165.433C240.628 165.088 241.122 164.685 241.8 164.845C242.518 165.041 242.764 165.724 242.927 166.177C243.219 166.984 243.309 167.54 243.368 167.908C243.389 168.042 243.414 168.194 243.433 168.243C243.59 168.638 245.563 168.741 246.305 168.783C247.974 168.874 249.418 168.952 249.765 170.092C250.014 170.908 249.495 171.798 248.177 172.808C247.767 173.122 247.356 173.339 246.999 173.501C247.219 173.708 247.394 173.99 247.405 174.375C247.429 175.285 246.494 175.983 244.626 176.454C244.162 176.572 243.537 176.729 242.72 176.689C242.335 176.67 241.998 176.611 241.711 176.556C241.668 176.72 241.59 176.89 241.448 177.051C241.032 177.526 240.361 177.647 239.449 177.379C238.443 177.099 237.648 176.719 236.947 176.384C236.334 176.093 235.806 175.843 235.362 175.775C234.538 175.66 233.769 176.168 232.849 176.845L230.543 178.571Z" fill="#3AD569"/>
<path d="M218.768 248.392L218.126 247.759L217.234 247.665C217.238 247.581 217.232 247.385 217.226 247.079C217.191 245.403 217.085 240.301 217.796 232.462C218.293 226.99 219.124 221.435 220.265 215.95C221.407 210.456 222.593 206.368 223.546 203.082C224.265 200.604 224.99 198.253 225.699 195.964C227.589 189.847 229.374 184.069 230.479 177.478C230.726 176.006 231.24 172.944 230.188 169.329C229.578 167.232 228.533 165.259 227.082 163.465L228.487 162.333C230.088 164.315 231.244 166.5 231.921 168.828C233.088 172.836 232.528 176.173 232.259 177.777C231.134 184.484 229.331 190.318 227.423 196.494C226.718 198.775 225.995 201.115 225.279 203.583C224.335 206.838 223.16 210.891 222.032 216.314C220.904 221.734 220.084 227.221 219.593 232.624C218.89 240.364 218.996 245.39 219.03 247.042C219.048 247.923 219.052 248.108 218.768 248.392Z" fill="#3AD569"/>
<path d="M223.23 165.54C223.158 165.523 223.085 165.505 223.013 165.484C221.531 165.069 220.343 163.864 219.479 161.902C219.075 160.98 218.98 160.009 218.79 158.072C218.76 157.774 218.628 156.263 218.79 154.261C218.896 152.953 219.037 152.428 219.393 152.015C219.789 151.555 220.323 151.292 220.887 151.16C220.902 150.987 220.959 150.817 221.071 150.657C221.535 149.991 222.312 150.264 222.733 150.407C222.945 150.483 223.21 150.58 223.507 150.63C223.975 150.71 224.254 150.628 224.677 150.506C225.081 150.389 225.584 150.243 226.279 150.256C227.65 150.274 228.665 150.89 229 151.092C230.763 152.15 231.372 153.837 232.076 155.79C232.216 156.182 232.681 157.597 232.789 159.42C232.867 160.735 232.695 161.273 232.497 161.658C232.092 162.449 231.473 162.816 229.937 163.587C228.332 164.396 227.527 164.8 226.867 165.008C225.33 165.49 224.365 165.792 223.23 165.54Z" fill="#3AD569"/>
<path d="M61.4766 158.109C60.2859 158.059 59.7703 160.856 58.727 160.754C57.6874 160.652 57.8375 157.839 55.896 154.913C55.5459 154.386 53.3395 151.062 51.7506 151.427C48.7388 152.121 50.5947 165.463 46.2226 166.867C45.2631 167.175 43.9017 166.941 40.8834 167.799C39.6827 168.141 39.0618 168.415 38.8763 168.951C38.6131 169.712 39.4564 170.334 40.7234 172.157C42.6235 174.891 42.0613 175.412 43.7249 177.366C44.9599 178.817 45.9184 179.293 45.7425 179.941C45.4937 180.858 43.4137 180.499 42.9326 181.554C42.4417 182.631 43.947 184.453 45.2414 185.561C47.6705 187.641 50.0604 187.807 52.2572 188.466C54.6445 189.182 57.9201 190.816 61.3509 194.977L90.4642 233.013C84.6265 224.999 68.922 202.574 63.358 193.824C61.7518 191.298 60.1836 188.643 60.8077 185.69C61.4086 182.846 63.9692 180.07 65.6037 175.47C65.7947 174.933 66.307 173.431 65.6536 172.775C65.1134 172.233 64.2685 172.763 63.7567 172.264C63.07 171.596 64.0328 170.099 64.3181 167.676C64.5193 165.967 64.2813 164.667 64.0767 163.548C64.015 163.211 63.0616 158.175 61.4766 158.109Z" fill="#3AD569"/>
<path d="M46.9748 223.852C46.6066 224.421 47.8334 225.481 47.482 225.962C47.1319 226.442 45.7921 225.557 43.7936 225.664C43.4332 225.684 41.1621 225.805 40.8836 226.69C40.3556 228.365 47.4508 231.305 46.8796 233.853C46.7543 234.412 46.2464 235.011 45.7976 236.737C45.619 237.424 45.575 237.808 45.785 238.053C46.0831 238.402 46.6323 238.168 47.8941 238.073C49.7865 237.931 49.8803 238.357 51.3214 238.106C52.3912 237.919 52.9014 237.587 53.1694 237.86C53.5486 238.247 52.772 239.162 53.1519 239.702C53.5395 240.253 54.8699 240.042 55.7882 239.727C57.5115 239.137 58.2827 238.014 59.2406 237.128C60.2815 236.165 62.0298 235.032 65.0656 234.551L92.1672 231.262C86.5426 231.81 70.9856 233.034 65.0781 233.235C63.3727 233.294 61.6146 233.296 60.3427 232.138C59.118 231.023 58.4917 228.967 56.7018 226.839C56.4927 226.591 55.9021 225.906 55.3911 226.037C54.9687 226.146 54.9856 226.712 54.5927 226.819C54.0657 226.963 53.6076 226.059 52.4986 225.22C51.7166 224.629 51.0084 224.37 50.3995 224.148C50.2159 224.081 47.4648 223.095 46.9748 223.852Z" fill="#3AD569"/>
<path d="M56.9066 214.186L53.6259 212.54L53.496 212.233C52.8958 210.813 52.0894 209.764 51.0987 209.113C50.9412 209.01 50.7784 208.915 50.6127 208.817C49.9557 208.432 49.1388 207.954 48.4838 206.94C48.1195 206.374 47.3507 204.948 48.1358 204.067C48.3444 203.828 48.5953 203.708 48.8356 203.649C48.8146 203.604 48.794 203.558 48.7715 203.508C48.505 202.902 48.4629 202.531 48.4225 202.174C48.3912 201.9 48.3593 201.617 48.1875 201.094C48.1123 200.864 48.0379 200.675 47.9756 200.516C47.7877 200.034 47.5823 199.43 47.9695 198.853C48.4048 198.25 49.1326 198.259 49.6145 198.265C50.4743 198.275 51.0267 198.386 51.3931 198.459C51.5268 198.486 51.6776 198.516 51.7304 198.516C52.1565 198.507 52.9434 196.699 53.2435 196.02C53.9128 194.491 54.4919 193.168 55.6837 193.243C56.5366 193.296 57.1897 194.093 57.6754 195.679C57.8263 196.173 57.886 196.632 57.9127 197.023C58.1844 196.891 58.5106 196.826 58.8751 196.95C59.7374 197.246 60.0651 198.365 59.8525 200.277C59.8009 200.752 59.7291 201.391 59.4058 202.141C59.2532 202.494 59.0799 202.788 58.9277 203.038C59.0661 203.135 59.198 203.268 59.2997 203.457C59.5998 204.012 59.478 204.682 58.9075 205.441C58.2924 206.283 57.6568 206.893 57.0972 207.432C56.6091 207.903 56.1903 208.31 55.9711 208.7C55.5743 209.431 55.7818 210.328 56.0942 211.425L56.9066 214.186Z" fill="#3AD569"/>
<path d="M39.7362 200.764L38.9733 204.349L38.7088 204.552C37.4853 205.492 36.6733 206.537 36.2943 207.658C36.234 207.837 36.1829 208.018 36.1307 208.203C35.9241 208.935 35.6675 209.845 34.8515 210.735C34.3951 211.23 33.2087 212.334 32.1557 211.799C31.8712 211.659 31.691 211.447 31.573 211.23C31.5345 211.261 31.4953 211.293 31.4533 211.327C30.9329 211.738 30.5846 211.873 30.249 212.003C29.9911 212.102 29.7248 212.205 29.2615 212.504C29.0583 212.634 28.894 212.754 28.7557 212.855C28.3361 213.158 27.8032 213.51 27.1455 213.282C26.451 213.015 26.2754 212.31 26.1588 211.843C25.9505 211.01 25.9174 210.449 25.8956 210.077C25.888 209.941 25.8787 209.787 25.865 209.736C25.7487 209.327 23.7964 209.026 23.0622 208.909C21.4113 208.65 19.9828 208.426 19.753 207.257C19.5879 206.42 20.1947 205.587 21.6081 204.716C22.0483 204.445 22.4786 204.27 22.8507 204.146C22.6529 203.917 22.5072 203.618 22.5356 203.235C22.6039 202.327 23.6049 201.727 25.511 201.447C25.9848 201.376 26.6219 201.284 27.4307 201.406C27.8116 201.464 28.1409 201.556 28.4213 201.64C28.4805 201.482 28.5759 201.32 28.7332 201.174C29.195 200.744 29.8752 200.691 30.7548 201.05C31.7274 201.43 32.4797 201.889 33.1437 202.293C33.7238 202.645 34.2241 202.946 34.6583 203.058C35.4669 203.256 36.2833 202.828 37.2673 202.248L39.7362 200.764Z" fill="#3AD569"/>
<path d="M29.6918 196.493L26.411 194.847L26.2812 194.54C25.681 193.121 24.8746 192.071 23.8839 191.421C23.7264 191.318 23.5636 191.222 23.3979 191.125C22.7408 190.74 21.924 190.261 21.269 189.248C20.9047 188.681 20.1358 187.256 20.921 186.375C21.1296 186.135 21.3804 186.015 21.6207 185.956C21.5997 185.911 21.5792 185.865 21.5567 185.816C21.2902 185.209 21.2481 184.839 21.2076 184.482C21.1763 184.207 21.1445 183.924 20.9727 183.401C20.8974 183.172 20.8231 182.983 20.7608 182.824C20.5728 182.342 20.3674 181.738 20.7547 181.161C21.19 180.558 21.9178 180.567 22.3997 180.573C23.2594 180.583 23.8119 180.693 24.1782 180.767C24.3119 180.794 24.4628 180.824 24.5155 180.824C24.9416 180.815 25.7286 179.006 26.0287 178.327C26.698 176.799 27.2771 175.476 28.4689 175.551C29.3217 175.604 29.9749 176.401 30.4605 177.987C30.6115 178.48 30.6711 178.94 30.6978 179.331C30.9696 179.198 31.2958 179.133 31.6603 179.258C32.5226 179.554 32.8503 180.673 32.6377 182.584C32.5861 183.06 32.5143 183.698 32.191 184.448C32.0384 184.802 31.8651 185.096 31.7129 185.346C31.8512 185.443 31.9831 185.576 32.0848 185.765C32.385 186.32 32.2632 186.99 31.6927 187.748C31.0776 188.591 30.442 189.201 29.8823 189.74C29.3943 190.211 28.9754 190.617 28.7563 191.008C28.3594 191.739 28.567 192.636 28.8793 193.733L29.6918 196.493Z" fill="#3AD569"/>
<path d="M91.0846 231.959L90.2656 232.337L89.8647 233.139C89.7876 233.106 89.6017 233.042 89.3123 232.941C87.7273 232.386 82.9028 230.699 75.7966 227.288C70.8361 224.906 65.915 222.184 61.1675 219.196C56.4125 216.203 52.9922 213.663 50.2429 211.621C48.1694 210.081 46.218 208.579 44.3179 207.115C39.2403 203.205 34.4437 199.512 28.6465 196.17C27.3527 195.424 24.6589 193.871 20.8987 193.588C18.7178 193.424 16.5002 193.71 14.3088 194.439L13.7383 192.728C16.159 191.925 18.6143 191.61 21.0359 191.792C25.205 192.106 28.1402 193.798 29.5505 194.611C35.45 198.012 40.2925 201.741 45.4188 205.689C47.3125 207.147 49.255 208.643 51.3201 210.176C54.0439 212.199 57.4346 214.718 62.1285 217.672C66.819 220.625 71.6802 223.313 76.5778 225.665C83.5946 229.033 88.3475 230.695 89.9089 231.241C90.7423 231.533 90.9169 231.594 91.0846 231.959Z" fill="#3AD569"/>
<path d="M14.9035 198.768C14.8631 198.83 14.8208 198.892 14.775 198.952C13.867 200.192 12.3199 200.881 10.1767 201.001C9.16958 201.056 8.22515 200.805 6.34168 200.304C6.05106 200.228 4.58743 199.822 2.76567 198.969C1.57506 198.412 1.13138 198.096 0.869193 197.618C0.576624 197.087 0.516536 196.496 0.590047 195.923C0.432859 195.848 0.293827 195.735 0.18263 195.574C-0.279994 194.907 0.248878 194.277 0.530108 193.933C0.675852 193.761 0.859273 193.547 1.01042 193.287C1.24991 192.878 1.27074 192.588 1.30415 192.15C1.33582 191.731 1.37519 191.21 1.63023 190.564C2.12824 189.289 3.06113 188.555 3.36837 188.313C4.97814 187.035 6.77438 187.057 8.85408 187.082C9.27053 187.088 10.7612 187.15 12.5092 187.687C13.7703 188.075 14.2149 188.425 14.5067 188.744C15.1075 189.399 15.2348 190.107 15.4207 191.813C15.6172 193.597 15.7148 194.492 15.6787 195.182C15.5923 196.787 15.5381 197.795 14.9035 198.768Z" fill="#3AD569"/>
<path d="M35.5508 250.265C35.5508 250.554 35.9559 250.785 36.4603 250.785H326.184C326.688 250.785 327.094 250.554 327.094 250.265C327.094 249.977 326.688 249.745 326.184 249.745H36.4603C35.9559 249.745 35.5508 249.977 35.5508 250.265Z" fill="#CCCCCC"/>
<path d="M144.115 79.6258C151.837 79.6258 158.097 73.3768 158.097 65.6683C158.097 57.9599 151.837 51.7109 144.115 51.7109C136.393 51.7109 130.133 57.9599 130.133 65.6683C130.133 73.3768 136.393 79.6258 144.115 79.6258Z" fill="#FFF00F"/>
<path d="M207.153 247.924C207.232 248.592 207.255 249.213 207.21 249.824H173.581C173.275 249.213 173.015 248.58 172.788 247.924C168.677 236.132 175.439 216.503 166.864 187.4C160.499 165.805 148.617 148.913 143.078 141.043C136.271 131.365 128.558 122.433 119.621 108.164C117.684 105.077 115.691 101.73 113.629 98.0781C112.938 96.857 104.976 82.6899 105.701 82.2489C106.04 82.0454 108.147 84.9059 108.861 85.867C115.158 94.3696 118.817 98.0895 124.061 104.206C127.244 107.915 131.004 112.494 136.282 119.561C149.818 137.663 156.58 146.708 158.936 153.48C159.559 155.289 162.877 165.081 169.13 177.224C172.324 183.42 173.921 186.518 174.793 186.27C177.262 185.557 173.932 159.903 163.466 134.259C161.677 129.895 160.34 127.102 157.803 121.822C153.68 113.206 130.721 65.3229 113.844 36.6607C111.726 33.0539 109.699 29.7637 107.83 26.8805C107.467 26.3378 107.116 25.8063 106.777 25.2976C104.421 21.7925 102.337 19.0224 100.604 17.236C99.6861 16.2862 97.3528 13.5952 92.6749 8.19072C90.8173 6.04244 89.4581 4.44824 88.5406 3.28362C88.4047 3.11407 88.2801 2.94444 88.1782 2.79745C87.0682 1.35024 86.7511 0.649169 87.0116 0.276102C87.3854 -0.255344 88.8238 0.0499583 90.3982 0.603968C90.5681 0.660488 90.7493 0.728324 90.9193 0.796159C92.6296 1.42933 94.3625 2.25475 94.9402 2.53742C100.241 5.0814 105.417 9.63793 110.208 15.0538C111.987 17.055 113.697 19.1694 115.351 21.3403C120.674 28.3503 125.318 35.9823 128.829 42.2575C133.134 49.9912 135.716 55.6784 135.716 55.6784C147.734 82.1698 161.065 112.471 161.767 112.211C162.538 111.929 147.756 74.2099 143.452 53.7223C142.014 46.8593 141.753 41.9296 143.645 40.9798C143.713 40.9459 143.781 40.912 143.86 40.8894C144.154 40.7876 144.426 40.7989 144.574 40.8102C144.574 40.8102 146.329 40.5841 148.175 40.9798C150.475 41.4773 153.091 47.8655 155.64 56.8316C162.266 79.9423 168.563 120.126 168.563 120.126C174.861 160.321 184.421 192.85 186.686 192.488C187.943 192.285 186.142 182.188 187.819 165.352C188.997 153.548 190.333 153.91 194.615 132.563C201.411 98.7 204.809 81.774 204.809 81.6836C204.775 80.9713 204.684 79.5353 204.899 78.0428C205.126 76.426 205.703 74.73 207.074 73.769C209.158 72.2991 212.511 72.9323 213.87 73.769C214.957 74.4473 215.512 75.6911 215.637 77.4775C216.384 88.7162 200.21 121.302 194.615 165.352C191.828 187.298 190.299 199.272 194.615 215.101C198.885 230.795 206.326 240.79 207.153 247.924Z" fill="#98632C"/>
<path d="M263.078 244.462L265.93 235.675L291.922 247.048L289.99 253.003L263.078 244.462Z" fill="#A0616A"/>
<path d="M283.854 243.063L284.057 246.577L285.871 247.276C285.871 247.276 283.493 247.183 281.531 250.871L283.109 252.014C283.109 252.014 284.25 254.182 287.468 255.133L296.202 257.386L297.268 254.445L291.641 251.721C291.641 251.721 290.635 250.407 298.339 249.137C298.339 249.137 300.94 248.577 301.276 241.445C301.322 240.464 300.745 239.547 299.824 239.203C299.316 239.014 298.772 239.03 298.358 239.598C297.304 241.044 297.233 242.827 295.54 243.368C293.847 243.909 283.854 243.063 283.854 243.063Z" fill="#2F2E41"/>
<path d="M247.117 263.773L250.624 255.225L275.685 268.517L273.309 274.31L247.117 263.773Z" fill="#A0616A"/>
<path d="M267.939 263.939L267.877 267.458L269.633 268.291C269.633 268.291 267.269 268.019 265.035 271.55L266.523 272.808C266.523 272.808 267.497 275.055 270.634 276.246L279.173 279.148L280.459 276.295L275.052 273.157C275.052 273.157 274.148 271.771 281.926 271.082C281.926 271.082 284.562 270.719 285.434 263.632C285.554 262.658 285.047 261.701 284.155 261.289C283.663 261.061 283.119 261.036 282.664 261.572C281.504 262.934 281.299 264.707 279.57 265.12C277.841 265.532 267.939 263.939 267.939 263.939Z" fill="#2F2E41"/>
<path d="M201.725 171.355C202.724 172.318 205.294 170.213 205.389 171.596C205.485 172.979 203.104 177.835 202.247 178.925C201.82 179.467 201.298 179.928 200.876 180.473C200.455 181.019 200.13 181.687 200.197 182.373C200.313 183.566 201.522 184.355 201.928 185.483C202.402 186.797 201.699 188.217 201 189.426C200.398 190.469 199.772 191.516 198.916 192.363C198.06 193.211 196.937 193.85 195.732 193.89C194.198 193.94 192.808 193.041 191.584 192.116C190.407 191.227 189.264 190.269 188.372 189.095C187.481 187.921 186.851 186.507 186.818 185.034C186.776 183.186 187.68 181.412 188.944 180.062C190.208 178.712 191.812 177.731 193.429 176.832C196.153 175.317 198.978 173.985 201.88 172.847" fill="#2F2E41"/>
<path d="M196.559 187.917C201.41 187.917 205.342 183.992 205.342 179.15C205.342 174.309 201.41 170.384 196.559 170.384C191.709 170.384 187.777 174.309 187.777 179.15C187.777 183.992 191.709 187.917 196.559 187.917Z" fill="#A0616A"/>
<path d="M209.401 203.966L218.525 219.525L235.604 228.536L231.167 232.648L214.564 226.397L203.066 211.655L203.998 204.484L209.401 203.966Z" fill="#A0616A"/>
<path d="M190.613 189.117L198.548 191.189L198.434 194.992L205.159 206.462C205.159 206.462 211.522 213.742 206.058 219.024L209.396 222.771L186.766 232.195L176.82 204.203L185.892 193.395L190.613 189.117Z" fill="#00BC41"/>
<path d="M197.016 195.821C197.016 195.821 201.806 190.363 205.524 195.407C209.243 200.45 211.095 206.205 211.095 206.205L202.32 210.383L197.016 195.821Z" fill="#00BC41"/>
<path d="M185.061 230.913C185.061 230.913 204.84 219.546 208.873 221.557L216.486 230.972L223.637 231.161L254.801 227.918L270.257 237.344L263.698 244.975L253.054 239.8L237.255 245.378C237.255 245.378 243.017 246.044 243.201 249.925L255.466 256.242L246.874 264.301L230.185 255.631C230.185 255.631 201.59 253.934 192.714 244.3C183.838 234.666 185.061 230.913 185.061 230.913Z" fill="#2F2E41"/>
<path d="M190.987 185.861L192.283 183.204C192.283 183.204 202.067 174.259 204.908 177.157L205.233 180.955C205.233 180.955 206.982 180.693 206.446 178.157C205.91 175.622 206.94 176.729 206.94 176.729C206.94 176.729 209.197 176.36 207.528 174.487C205.858 172.613 205.841 169.015 200.135 170.64C196.966 171.542 193.003 173.494 190.107 175.052C186.855 176.799 185.855 181.087 188.147 183.977C188.832 184.841 189.752 185.538 190.987 185.861Z" fill="#2F2E41"/>
<path d="M241.373 236.182C242.607 234.442 241.417 231.485 238.716 229.577C236.015 227.669 232.825 227.533 231.592 229.272C230.359 231.012 231.549 233.969 234.25 235.877C236.951 237.785 240.14 237.921 241.373 236.182Z" fill="#A0616A"/>
<path d="M222.495 188.641L223.37 191.263H222.495C222.495 191.263 223.589 197.163 220.087 198.037C216.584 198.911 213.353 193.339 213.353 193.339L211.769 194.103C211.769 194.103 213.082 200.659 208.266 201.533C203.45 202.407 201.699 196.726 201.699 196.726L190.316 197.6L190.754 194.103L201.067 195.132C201.067 195.132 200.824 192.355 206.953 191.918L215.709 190.17L222.495 188.641Z" fill="#2F2E41"/>
<path d="M186.049 202.42L185.772 207.139L200.975 202.244L201.102 207.031L182.949 219.746C182.949 219.746 177.671 212.269 177.047 209.682C176.424 207.094 176.749 203.106 176.749 203.106L186.049 202.42Z" fill="#A0616A"/>
<path d="M188.327 194.63C188.327 194.63 182.977 189.4 180.171 193.699C177.365 197.997 175.875 205.514 175.875 205.514L186.982 204.341L188.327 194.63Z" fill="#00BC41"/>
<path d="M183.5 189.934C184.743 193.275 184.843 197.029 183.78 200.432C186.313 199.931 188.433 198.031 189.588 195.725C190.744 193.42 191.021 190.755 190.808 188.186L190.801 188.109C190.466 184.25 192.671 180.609 196.29 179.209C198.731 178.265 200.998 176.872 202.922 175.1C204.009 174.099 205.059 172.763 204.825 171.306C204.61 169.964 203.385 169.043 202.221 168.337C199.563 166.724 196.628 165.435 193.527 165.207C190.425 164.978 187.131 165.933 185.036 168.227C182.941 170.522 182.356 174.247 184.11 176.811C183.333 176.855 182.628 177.48 182.493 178.245C182.357 179.009 182.805 179.838 183.519 180.145C183.038 180.001 182.585 180.565 182.639 181.063C182.694 181.561 183.066 181.959 183.431 182.303C183.95 182.793 184.532 183.316 184.306 184.187C184.216 184.536 184.003 184.842 183.725 185.072C183.052 185.63 182.175 185.731 181.332 185.821C182.828 186.721 183.742 188.505 183.597 190.243" fill="#2F2E41"/>
<path d="M204.523 205.773C206.848 203.424 207.503 200.305 205.984 198.807C204.466 197.309 201.349 198 199.024 200.349C196.698 202.699 196.043 205.818 197.562 207.316C199.081 208.813 202.197 208.123 204.523 205.773Z" fill="#A0616A"/>
<path d="M334.654 93.0529C333.394 93.7598 331.36 90.9639 330.9 92.3315C330.439 93.699 331.555 99.217 332.131 100.54C332.417 101.198 332.822 101.8 333.103 102.46C333.383 103.12 333.534 103.879 333.286 104.552C332.854 105.723 331.428 106.2 330.721 107.229C329.897 108.428 330.23 110.043 330.615 111.445C330.947 112.653 331.3 113.873 331.939 114.951C332.578 116.03 333.541 116.969 334.744 117.326C336.276 117.78 337.913 117.24 339.39 116.631C340.81 116.044 342.214 115.38 343.422 114.432C344.629 113.484 345.637 112.225 346.059 110.75C346.589 108.9 346.146 106.876 345.229 105.184C344.313 103.491 342.956 102.082 341.565 100.751C339.221 98.509 336.727 96.4241 334.105 94.5145" fill="#2F2E41"/>
<path d="M353.394 187.969L350.767 212.442C350.767 212.442 356.896 225.116 350.329 240.412L349.892 249.152L342.449 248.278L344.2 240.849L340.26 210.694L337.195 188.843L353.394 187.969Z" fill="#FFB6B6"/>
<path d="M332.381 187.531C332.381 187.531 334.132 206.76 330.63 216.812C330.63 216.812 332.381 232.108 327.565 248.278V260.317L319.685 258.767L320.123 213.753L317.934 189.279L332.381 187.531Z" fill="#FFB6B6"/>
<path d="M331.262 112.686C333.481 115.477 337.394 116.286 340.552 114.625C345.059 112.253 351.213 109.536 352.301 111.707C354.052 115.204 354.052 118.597 354.052 118.597L355.804 159.343C355.804 159.343 356.679 175.795 345.734 174.343C334.789 172.891 317.715 179.009 317.715 179.009L319.459 160.958L324.116 154.153L326.002 134.627L322.75 118.918L326.69 117.17C326.69 117.17 327.128 114.111 328.441 114.111C329.754 114.111 330.072 111.172 331.226 112.642L331.262 112.686Z" fill="#00BC41"/>
<path d="M354.271 158.688L355.147 207.433C355.147 207.433 347.266 219.67 338.948 209.618L334.132 185.347L333.257 213.551C333.257 213.551 321.436 219.67 317.934 214.862L317.715 179.01L325.814 162.622L354.271 158.688Z" fill="#2F2E41"/>
<path d="M350.15 244.003C350.15 244.003 352.957 246.094 352.081 248.716C351.206 251.338 344.639 261.389 338.947 260.078C333.256 258.767 335.883 255.708 335.883 255.708L342.45 246.094C342.45 246.094 345.076 246.531 346.39 247.405C347.703 248.279 350.15 244.003 350.15 244.003Z" fill="#2F2E41"/>
<path d="M327.563 256.582C327.563 256.582 332.379 261.389 329.752 263.574C327.125 265.759 309.176 267.508 309.613 264.885C310.051 262.263 319.245 254.834 319.245 254.834C319.245 254.834 321.872 253.96 322.747 256.145C323.623 258.33 327.563 256.582 327.563 256.582Z" fill="#2F2E41"/>
<path d="M337.803 111.391C342.853 111.391 346.946 107.304 346.946 102.264C346.946 97.223 342.853 93.1367 337.803 93.1367C332.754 93.1367 328.66 97.223 328.66 102.264C328.66 107.304 332.754 111.391 337.803 111.391Z" fill="#FFB6B6"/>
<path d="M348.108 116.558C345.974 119.596 344.883 123.351 345.056 127.058C342.636 125.888 341.003 123.416 340.447 120.79C339.892 118.164 340.316 115.407 341.209 112.876C341.218 112.851 341.227 112.826 341.236 112.8C342.592 109.001 341.332 104.754 338.056 102.392C335.847 100.799 333.931 98.8006 332.46 96.5095C331.63 95.2162 330.924 93.5937 331.545 92.1878C332.116 90.8924 333.593 90.2869 334.951 89.8818C338.054 88.9567 341.35 88.4303 344.535 89.0157C347.719 89.6011 350.784 91.4291 352.289 94.2909C353.794 97.1528 353.4 101.058 350.957 103.18C351.728 103.429 352.273 104.244 352.208 105.049C352.142 105.855 351.473 106.572 350.672 106.694C351.194 106.675 351.503 107.362 351.316 107.849C351.13 108.337 350.65 108.639 350.192 108.89C349.539 109.248 348.815 109.621 348.813 110.557C348.812 110.932 348.946 111.297 349.165 111.602C349.695 112.341 350.552 112.673 351.377 112.986C349.632 113.499 348.241 115.056 347.929 116.844" fill="#2F2E41"/>
<path d="M345.43 167.9C343.421 169.389 341.023 169.561 340.074 168.285C339.125 167.008 339.984 164.767 341.994 163.277C342.789 162.671 343.717 162.264 344.702 162.09L353.293 155.888L356.123 159.974L347.353 165.655C346.901 166.546 346.241 167.315 345.43 167.9Z" fill="#FFB6B6"/>
<path d="M350.843 117.389C350.843 117.389 357.774 117.607 359.087 122.414C360.401 127.222 363.027 137.468 362.59 151.695C362.59 151.695 364.779 160.873 359.087 160.436L351.207 163.932L345.953 156.94L350.331 151.695L350.843 117.389Z" fill="#00BC41"/>
<path d="M151.29 272.308L144.738 258.166L137.469 261.815L141.553 274.597L148.843 278.152L151.29 272.308Z" fill="#FFB6B6"/>
<path d="M99.5743 231.843C100.158 232.105 101.933 233.163 104.116 232.806C105.606 232.562 106.606 231.771 106.937 231.523C111.041 228.455 123.547 225.829 132.911 228.707C135.032 229.359 136.322 230.087 137.341 231.18C138.786 232.73 139.025 234.301 140.176 238.192C140.805 240.321 141.601 242.397 142.249 244.52C146.044 256.949 148.533 258.699 147.13 261.757C145.573 265.15 140.608 267.135 138.229 265.861C137.254 265.34 137.109 264.483 136.246 262.549C133.717 256.877 131.769 257.07 130.049 252.802C128.042 247.82 129.598 244.828 127.891 244.087C126.308 243.4 124.665 245.841 119.934 248.183C117.769 249.254 116.374 249.603 112.089 250.769C95.3997 255.307 94.9545 255.884 91.9884 255.667C90.6907 255.573 81.4802 254.901 79.7875 250.187C77.1386 242.81 94.3152 229.477 99.5743 231.843Z" fill="#2F2E41"/>
<path d="M147.302 273.571C148.179 273.499 149.204 273.416 149.812 272.605C150.223 272.056 150.382 271.257 150.171 270.591C149.927 269.822 149.276 269.502 149.341 269.404C149.441 269.256 151.025 269.888 152.568 271.134C152.859 271.369 154.172 272.452 155.559 274.626C156.671 276.367 156.379 276.534 157.097 277.565C159.303 280.731 162.67 280.042 163.565 282.596C163.911 283.581 163.787 284.764 163.215 285.553C162.065 287.137 159.31 286.847 157.811 286.671C154.201 286.246 151.891 284.733 149.407 283.355C140.962 278.667 135.427 278.258 135.489 275.942C135.501 275.504 135.696 275.611 137.413 272.971C139.107 270.365 139.362 269.575 140.025 269.553C141.023 269.52 141.058 271.289 143.075 272.604C144.863 273.77 146.734 273.617 147.302 273.571Z" fill="#2F2E41"/>
<path d="M121.684 300.21L124.218 284.835L116.151 283.78L112.34 296.647L116.372 303.674L121.684 300.21Z" fill="#FFB6B6"/>
<path d="M100.783 237.739C101.118 238.283 101.992 240.154 103.998 241.082C105.368 241.715 106.642 241.621 107.054 241.602C112.177 241.363 124.001 246.2 130.131 253.831C131.519 255.559 132.177 256.885 132.405 258.361C132.73 260.453 132.043 261.887 130.806 265.752C130.13 267.866 129.62 270.03 128.962 272.15C125.111 284.561 126.186 287.405 123.305 289.149C120.108 291.083 114.883 289.943 113.63 287.555C113.117 286.577 113.479 285.787 113.854 283.703C114.952 277.592 113.231 276.66 114.209 272.165C115.35 266.917 118.321 265.313 117.325 263.744C116.402 262.288 113.669 263.387 108.437 262.672C106.043 262.345 104.693 261.852 100.491 260.414C84.1286 254.815 83.436 255.042 81.1035 253.201C80.0829 252.395 72.5978 246.607 74.0907 241.826C80.9377 219.901 97.7619 232.833 100.783 237.739Z" fill="#2F2E41"/>
<path d="M116.802 299.02C117.567 299.452 118.462 299.958 119.422 299.628C120.071 299.404 120.652 298.832 120.852 298.162C121.082 297.389 120.724 296.76 120.833 296.716C120.999 296.649 121.954 298.06 122.53 299.956C122.638 300.313 123.115 301.946 123.041 304.522C122.981 306.585 122.646 306.56 122.66 307.816C122.704 311.672 125.878 312.989 125.182 315.604C124.913 316.613 124.146 317.523 123.229 317.854C121.386 318.521 119.269 316.737 118.128 315.751C115.38 313.375 114.319 310.829 113.04 308.296C108.689 299.683 104.339 296.242 105.693 294.36C105.949 294.004 106.051 294.202 108.957 292.98C111.824 291.774 112.48 291.263 113.041 291.617C113.885 292.149 112.918 293.632 113.848 295.851C114.672 297.818 116.306 298.74 116.802 299.02Z" fill="#2F2E41"/>
<path d="M93.2313 164.603L104.486 163.801L107.97 169.418L118.42 172.361L114.535 199.511L117.42 228.409C117.42 228.409 103.682 237.897 102.61 242.177C101.538 246.457 75.2773 237.897 75.2773 237.897L84.2543 210.211L83.4504 188.544L81.0387 175.972L92.0254 170.889L93.2313 164.603Z" fill="#3F3D56"/>
<path d="M88.1422 172.628C88.1422 172.628 79.1737 172.494 77.9636 176.239C76.7535 179.984 72.734 205.931 72.734 205.931L69.6523 217.299L83.4527 210.478L80.5051 205.938L90.152 187.474L88.1422 172.628Z" fill="#3F3D56"/>
<path d="M93.6269 214.223C95.1098 214.225 96.4884 213.372 97.0649 212.008C97.5009 210.976 97.4598 209.987 97.1336 209.138C97.2385 209.095 97.3426 209.05 97.4501 209.011C97.2922 208.947 97.1387 208.875 96.9854 208.803C96.4512 207.74 95.427 206.969 94.2072 206.782C92.6963 205.166 91.7676 203.001 91.7579 200.619C91.7379 195.708 95.7283 191.607 100.646 191.489C100.685 191.488 100.723 191.487 100.762 191.487C102.964 191.461 104.962 192.691 106.077 194.586C106.728 195.692 107.931 196.435 109.31 196.435C110.365 196.435 111.317 195.999 111.997 195.299C113.48 193.773 115.336 192.637 117.437 192.289C118.817 192.06 120.244 191.974 121.705 192.046C131.706 192.542 140.31 201.39 140.524 211.383C140.761 222.513 131.794 231.61 120.698 231.61C114.925 231.61 109.73 229.146 106.107 225.214C104.499 223.469 102.245 222.491 99.8695 222.515C99.8453 222.515 99.8211 222.516 99.7969 222.516C95.949 222.516 92.8297 219.402 92.8297 215.561C92.8297 215.348 92.8403 215.137 92.8602 214.929C92.8974 214.541 93.236 214.223 93.6269 214.223Z" fill="#00BC41"/>
<path d="M126.594 208.339L59.8695 195.767L59.6016 200.582L125.79 216.364L126.594 208.339Z" fill="#00BC41"/>
<path d="M60.674 196.568L59.8701 195.766C59.8701 195.766 56.3865 194.161 56.3865 193.894C56.3865 193.726 51.2424 191.987 47.3938 190.709C45.2444 189.995 42.9744 191.407 42.6684 193.648L42.1861 197.178C41.8977 199.289 43.4933 201.19 45.626 201.275L55.0466 201.651L59.6021 200.581L60.674 196.568Z" fill="#00BC41"/>
<path d="M126.459 209.81L126.618 209.143L59.8508 196.401L59.7344 197.237L126.459 209.81Z" fill="#3F3D56"/>
<path d="M126.306 211.075L126.459 210.345L59.7782 197.721L59.7344 198.575L126.306 211.075Z" fill="#3F3D56"/>
<path d="M126.153 212.591L126.191 211.415L59.7266 198.681L59.7351 199.377L126.153 212.591Z" fill="#3F3D56"/>
<path d="M125.977 214.353L125.925 213.287L59.6313 199.641L59.5742 199.902L125.977 214.353Z" fill="#3F3D56"/>
<path d="M125.976 215.42L125.925 214.624L59.7313 200.082L59.6719 200.343L125.976 215.42Z" fill="#3F3D56"/>
<path d="M87.6331 170.922L90.9532 169.087L92.3933 198.441L91.8911 202.052C91.8911 202.052 83.5092 178.98 87.6331 170.922Z" fill="#3F3D56"/>
<path d="M99.8695 161.795C104.457 161.795 108.177 158.082 108.177 153.502C108.177 148.923 104.457 145.21 99.8695 145.21C95.2817 145.21 91.5625 148.923 91.5625 153.502C91.5625 158.082 95.2817 161.795 99.8695 161.795Z" fill="#FFB6B6"/>
<path d="M91.8907 158.451L93.8766 160.033L91.6227 151.496C91.6227 151.496 97.92 151.362 98.4559 147.885C98.4559 147.885 103.413 147.751 104.753 147.751C106.093 147.751 106.698 156.601 106.698 156.601C106.698 156.601 109.309 149.356 106.629 145.611C103.949 141.866 104.887 144.14 104.351 142.802C103.815 141.465 98.3219 140.235 94.8383 141.599C91.3547 142.962 91.2208 144.906 90.1489 144.924C89.077 144.942 85.3254 150.292 88.809 154.572C92.2926 158.852 91.8907 158.451 91.8907 158.451Z" fill="#2F2E41"/>
<path d="M118.145 212.867C119.129 212.082 119.855 211.141 120.264 210.211L130.116 203.331L126.7 198.747L117.073 206.219C116.074 206.411 114.993 206.908 114.009 207.692C111.759 209.484 110.862 212.094 112.004 213.523C113.146 214.952 115.895 214.658 118.145 212.867Z" fill="#FFB6B6"/>
<path d="M80.3986 202.402C79.668 203.426 79.2298 204.53 79.0929 205.537L71.5156 214.856L76.0633 218.326L83.2601 208.499C84.1683 208.04 85.0701 207.266 85.8007 206.241C87.4697 203.901 87.6134 201.145 86.1217 200.085C84.6299 199.024 82.0676 200.062 80.3986 202.402Z" fill="#FFB6B6"/>
<path d="M114.133 174.099C114.133 174.099 116.545 170.086 118.956 172.494C120.865 174.399 131.33 186.521 135.616 191.498C136.797 192.87 137.446 194.619 137.446 196.429C137.446 199.228 135.898 201.799 133.421 203.111L120.028 210.211L116.277 204.593L127.799 196.301L110.113 186.671L114.133 174.099Z" fill="#3F3D56"/>
<path d="M71.7855 211.075L69.6523 217.3L75.8156 220.51L80.5051 217.3L83.4527 210.479L74.7438 207.938" fill="#3F3D56"/>
<path d="M309.12 113.027C308.87 110.414 310.019 108.167 311.685 108.009C313.351 107.851 314.903 109.84 315.152 112.455C315.266 113.497 315.128 114.552 314.75 115.531L315.667 126.616L310.447 126.935L310.097 115.973C309.54 115.083 309.205 114.073 309.12 113.027Z" fill="#FFB6B6"/>
<path d="M337.562 118.286C337.562 118.286 329.034 113.278 327.278 114.029C325.522 114.78 316.993 127.55 316.993 127.55L316.209 125.22L310.221 125.798C310.221 125.798 306.709 142.074 314.485 140.571C322.261 139.069 335.054 125.046 335.054 125.046L337.562 118.286Z" fill="#00BC41"/>
<path d="M296.817 120.114L308.609 117.377L309.454 119.823L315.158 118.285L318.92 117.27L322.574 110.184L319.982 102.683L312.261 102.61L309.901 103.074L303.316 104.367C302.758 105.287 303.063 106.485 303.992 107.029L304.298 107.207L295.033 108.809C295.033 108.809 292.074 114.066 296.817 120.114Z" fill="#3F3D56"/>
<path d="M309.902 103.074L315.159 118.285L318.922 117.27L322.576 110.184L319.983 102.683L312.263 102.61L309.902 103.074Z" fill="#2F2E41"/>
<path d="M307.908 103.708C308.72 103.528 309.305 103.055 309.215 102.649C309.125 102.244 308.394 102.061 307.583 102.241C306.771 102.42 306.186 102.894 306.276 103.299C306.366 103.704 307.096 103.887 307.908 103.708Z" fill="#3F3D56"/>
</g>
<defs>
<clipPath id="clip0_26_264">
<rect width="363" height="318" fill="white"/>
</clipPath>
</defs>
</svg>
