<svg width="363" height="252" viewBox="0 0 363 252" fill="none" xmlns="http://www.w3.org/2000/svg">
<g clip-path="url(#clip0_111_1882)">
<path d="M72.3253 252C112.27 252 144.651 249.546 144.651 246.519C144.651 243.492 112.27 241.038 72.3253 241.038C32.3812 241.038 0 243.492 0 246.519C0 249.546 32.3812 252 72.3253 252Z" fill="#E6E6E6"/>
<path d="M55.2852 55.9142C67.8719 50.5724 83.549 53.9569 98.8593 56.3059C99.0018 53.4613 100.729 49.9993 98.9197 48.0147C96.722 45.6036 96.9243 43.0703 98.2468 40.5224C101.629 34.0069 96.7834 27.0741 91.8912 21.3096C90.7885 20.0132 89.395 18.9946 87.8237 18.3366C86.2524 17.6785 84.5477 17.3996 82.8481 17.5224L73.7857 18.1683C71.5804 18.3254 69.4759 19.1508 67.7536 20.534C66.0314 21.9173 64.7736 23.7923 64.1486 25.9083C61.9846 28.8448 60.8264 31.7731 61.5556 34.6863C58.3144 36.8964 57.7699 39.5642 59.2264 42.5717C60.4614 44.4653 60.4482 46.3086 59.1702 48.1008C57.4917 50.3858 56.2061 52.9337 55.3662 55.6399L55.2852 55.9142Z" fill="#2F2E41"/>
<path d="M354.398 217.85H97.8634C95.5821 217.85 93.3942 216.946 91.7811 215.336C90.168 213.726 89.2617 211.543 89.2617 209.267C182.255 198.483 273.501 198.483 362.999 209.267C362.999 211.543 362.093 213.726 360.48 215.336C358.867 216.946 356.679 217.85 354.398 217.85Z" fill="#2F2E41"/>
<path d="M362.999 209.772L89.2617 209.267L120.987 156.004L121.139 155.751V38.3647C121.139 36.9399 121.42 35.529 121.966 34.2126C122.513 32.8962 123.314 31.7001 124.323 30.6926C125.333 29.6851 126.532 28.886 127.851 28.3408C129.17 27.7956 130.584 27.515 132.012 27.5151H318.731C320.159 27.515 321.573 27.7956 322.892 28.3408C324.211 28.886 325.41 29.6851 326.42 30.6926C327.43 31.7001 328.231 32.8962 328.777 34.2126C329.323 35.529 329.605 36.9399 329.604 38.3647V156.559L362.999 209.772Z" fill="#3F3D56"/>
<path d="M131.765 35.0884C130.826 35.0894 129.925 35.4621 129.261 36.1246C128.597 36.7872 128.224 37.6855 128.223 38.6224V145.654C128.224 146.591 128.597 147.489 129.261 148.152C129.925 148.814 130.826 149.187 131.765 149.188H320.497C321.436 149.187 322.336 148.814 323 148.152C323.664 147.489 324.038 146.591 324.039 145.654V38.6224C324.038 37.6855 323.664 36.7872 323 36.1247C322.336 35.4622 321.436 35.0895 320.497 35.0884H131.765Z" fill="white"/>
<path d="M132.555 163.324C132.265 163.325 131.981 163.408 131.737 163.564C131.493 163.72 131.298 163.943 131.176 164.206L121.401 185.41C121.294 185.641 121.248 185.895 121.265 186.148C121.283 186.401 121.364 186.646 121.501 186.86C121.639 187.074 121.828 187.25 122.051 187.372C122.275 187.494 122.525 187.558 122.78 187.558H328.354C328.613 187.558 328.867 187.492 329.093 187.366C329.319 187.24 329.509 187.059 329.645 186.839C329.781 186.62 329.859 186.369 329.87 186.111C329.882 185.853 329.827 185.597 329.711 185.366L319.086 164.161C318.96 163.909 318.767 163.697 318.527 163.549C318.287 163.401 318.01 163.323 317.728 163.324H132.555Z" fill="#2F2E41"/>
<path d="M225.371 33.3211C226.628 33.3211 227.648 32.304 227.648 31.0492C227.648 29.7945 226.628 28.7773 225.371 28.7773C224.113 28.7773 223.094 29.7945 223.094 31.0492C223.094 32.304 224.113 33.3211 225.371 33.3211Z" fill="white"/>
<path d="M205.165 191.597C204.832 191.597 204.507 191.707 204.242 191.91C203.978 192.112 203.787 192.396 203.7 192.717L201.248 201.805C201.187 202.029 201.179 202.265 201.224 202.493C201.269 202.721 201.367 202.936 201.508 203.12C201.65 203.305 201.832 203.454 202.041 203.557C202.25 203.66 202.48 203.713 202.713 203.713H249.347C249.589 203.713 249.827 203.656 250.042 203.545C250.257 203.434 250.443 203.274 250.583 203.077C250.723 202.881 250.814 202.653 250.849 202.414C250.883 202.175 250.86 201.932 250.781 201.703L247.628 192.616C247.525 192.318 247.331 192.06 247.074 191.878C246.817 191.695 246.509 191.597 246.194 191.597H205.165Z" fill="#2F2E41"/>
<path d="M329.606 153.984V156.004H120.988L121.145 155.752V153.984H329.606Z" fill="#2F2E41"/>
<path d="M323.786 70.6813C343.347 70.6813 359.205 54.8588 359.205 35.3407C359.205 15.8226 343.347 0 323.786 0C304.225 0 288.367 15.8226 288.367 35.3407C288.367 54.8588 304.225 70.6813 323.786 70.6813Z" fill="#00BC41"/>
<path d="M338.461 50.7391H309.114C308.577 50.7385 308.063 50.5256 307.683 50.147C307.304 49.7684 307.09 49.255 307.09 48.7196V31.0492C307.09 30.5138 307.304 30.0005 307.683 29.6219C308.063 29.2433 308.577 29.0304 309.114 29.0298H338.461C338.998 29.0304 339.512 29.2433 339.891 29.6219C340.271 30.0005 340.484 30.5138 340.485 31.0492V48.7196C340.484 49.255 340.271 49.7684 339.891 50.147C339.512 50.5256 338.998 50.7385 338.461 50.7391ZM309.114 31.0493V48.7196H338.462L338.461 31.0492L309.114 31.0493Z" fill="white"/>
<path d="M332.895 31.0492H314.68V22.9714C314.68 17.1205 318.51 12.874 323.787 12.874C329.065 12.874 332.895 17.1205 332.895 22.9714L332.895 31.0492ZM316.704 29.0298H330.871V22.9714C330.871 18.2153 327.958 14.8935 323.787 14.8935C319.617 14.8935 316.704 18.2153 316.704 22.9714L316.704 29.0298Z" fill="white"/>
<path d="M323.786 41.3993C324.903 41.3993 325.81 40.4951 325.81 39.3798C325.81 38.2645 324.903 37.3604 323.786 37.3604C322.668 37.3604 321.762 38.2645 321.762 39.3798C321.762 40.4951 322.668 41.3993 323.786 41.3993Z" fill="white"/>
<path d="M299.06 112.884H153.201C152.485 112.883 151.798 112.599 151.292 112.094C150.786 111.588 150.501 110.903 150.5 110.189V74.0872C150.501 73.3727 150.786 72.6877 151.292 72.1824C151.798 71.6772 152.485 71.3929 153.201 71.3921H299.06C299.776 71.3929 300.463 71.6772 300.969 72.1824C301.476 72.6877 301.76 73.3727 301.761 74.0872V110.189C301.76 110.903 301.476 111.588 300.969 112.094C300.463 112.599 299.776 112.883 299.06 112.884ZM153.201 72.4702C152.771 72.4706 152.359 72.6411 152.056 72.9443C151.752 73.2475 151.581 73.6585 151.58 74.0872V110.189C151.581 110.617 151.752 111.028 152.056 111.332C152.359 111.635 152.771 111.805 153.201 111.806H299.06C299.49 111.805 299.902 111.635 300.206 111.332C300.509 111.028 300.68 110.617 300.681 110.189V74.0872C300.68 73.6585 300.509 73.2474 300.206 72.9443C299.902 72.6411 299.49 72.4706 299.06 72.4701L153.201 72.4702Z" fill="#E6E6E6"/>
<path d="M175.866 101.731C181.943 101.731 186.869 96.8162 186.869 90.7529C186.869 84.6897 181.943 79.7744 175.866 79.7744C169.789 79.7744 164.863 84.6897 164.863 90.7529C164.863 96.8162 169.789 101.731 175.866 101.731Z" fill="#E6E6E6"/>
<path d="M201.278 83.4341C201.037 83.4337 200.798 83.4807 200.575 83.5725C200.353 83.6643 200.15 83.799 199.98 83.969C199.809 84.1389 199.674 84.3408 199.581 84.563C199.489 84.7851 199.441 85.0233 199.441 85.2638C199.441 85.5044 199.489 85.7425 199.581 85.9647C199.674 86.1869 199.809 86.3887 199.98 86.5587C200.15 86.7286 200.353 86.8633 200.575 86.9551C200.798 87.0469 201.037 87.094 201.278 87.0936H287.729C288.215 87.0936 288.682 86.9008 289.025 86.5577C289.369 86.2145 289.563 85.7491 289.563 85.2638C289.563 84.7786 289.369 84.3131 289.025 83.97C288.682 83.6269 288.215 83.4341 287.729 83.4341H201.278Z" fill="#E6E6E6"/>
<path d="M201.275 94.4126C200.789 94.4126 200.322 94.6054 199.979 94.9485C199.635 95.2917 199.441 95.7571 199.441 96.2423C199.441 96.7276 199.635 97.193 199.979 97.5362C200.322 97.8793 200.789 98.0721 201.275 98.0721H238.475C238.961 98.0721 239.428 97.8793 239.772 97.5362C240.116 97.193 240.309 96.7276 240.309 96.2423C240.309 95.7571 240.116 95.2917 239.772 94.9485C239.428 94.6054 238.961 94.4126 238.475 94.4126H201.275Z" fill="#E6E6E6"/>
<path d="M120.629 95.1527L93.6655 109.456L93.3242 97.5366C102.125 96.0707 110.498 93.5184 118.24 89.3633L121.06 82.4117C121.367 81.6542 121.866 80.9894 122.509 80.4827C123.151 79.976 123.915 79.6446 124.725 79.5213C125.534 79.3979 126.362 79.4868 127.127 79.7791C127.892 80.0714 128.567 80.5571 129.087 81.1886C129.848 82.1125 130.228 83.2903 130.151 84.4834C130.073 85.6766 129.544 86.7958 128.671 87.6144L120.629 95.1527Z" fill="#FFB8B8"/>
<path d="M54.7452 177.734C54.5485 177.014 54.5067 176.261 54.6226 175.524C54.7386 174.787 55.0095 174.082 55.4178 173.457L61.3408 164.387C62.7417 162.242 64.8914 160.693 67.3726 160.039C69.8539 159.386 72.4898 159.676 74.7691 160.853C72.2798 165.08 72.6268 168.789 75.6288 172.012C70.9686 174.282 66.6615 177.212 62.8409 180.711C62.1434 181.186 61.3424 181.487 60.5046 181.59C59.6668 181.693 58.8164 181.595 58.0244 181.303C57.2323 181.012 56.5215 180.536 55.9511 179.915C55.3807 179.294 54.9672 178.546 54.7452 177.734Z" fill="#2F2E41"/>
<path d="M121.858 165.875C120.961 167.366 119.696 168.601 118.183 169.463C116.671 170.326 114.961 170.785 113.219 170.798L73.8706 171.096L72.1641 161.22L89.5707 156.112L74.8945 144.873L90.9359 126.143L120.072 153.239C121.775 154.823 122.881 156.942 123.206 159.242C123.531 161.542 123.055 163.883 121.858 165.875Z" fill="#2F2E41"/>
<path d="M67.7271 233.417H58.5119C50.2379 176.827 41.8158 120.079 66.7032 98.8984L96.0556 103.666L92.3012 128.526L75.9185 147.257L67.7271 233.417Z" fill="#2F2E41"/>
<path d="M75.8284 246.236C75.107 246.432 74.3521 246.474 73.6134 246.358C72.8747 246.243 72.1689 245.972 71.5423 245.565L61.5365 244.223C59.3864 242.825 57.8333 240.681 57.1786 238.205C56.5238 235.729 56.8141 233.099 57.993 230.825C62.2303 233.308 65.9474 232.962 69.1776 229.966C71.4599 234.565 75.2204 234.284 78.8118 238.158C79.2873 238.854 79.5893 239.653 79.6926 240.489C79.7959 241.325 79.6975 242.173 79.4056 242.964C79.1137 243.754 78.6368 244.463 78.0146 245.033C77.3923 245.602 76.6428 246.014 75.8284 246.236Z" fill="#2F2E41"/>
<path d="M89.5692 61.0972L72.5039 57.0106C75.3382 51.2219 75.5716 44.7807 74.2104 37.9397L85.8148 37.5991C86.1784 46.1062 87.2785 54.0539 89.5692 61.0972Z" fill="#FFB8B8"/>
<path d="M94.2614 113.92C81.8385 122.367 73.0609 114.209 66.3625 101.623C67.2933 93.9214 65.7862 84.7049 62.9949 74.6905C61.7535 70.2734 62.217 65.5524 64.2938 61.4597C66.3705 57.3669 69.9097 54.1997 74.2125 52.5835L88.8887 58.7135C101.35 68.8488 103.803 79.8274 99.1279 91.4065L94.2614 113.92Z" fill="#00BC41"/>
<path d="M58.5116 69.6111L44.8594 76.7627L69.0921 91.0658L72.4639 99.3647C72.689 99.9186 72.7986 100.512 72.7862 101.11C72.7737 101.707 72.6394 102.296 72.3914 102.84C72.1435 103.384 71.7871 103.872 71.3439 104.275C70.9008 104.677 70.3802 104.985 69.8139 105.179C69.1702 105.401 68.4838 105.471 67.8085 105.383C67.1333 105.296 66.4874 105.054 65.9216 104.676C65.3558 104.298 64.8854 103.794 64.5472 103.205C64.209 102.615 64.0122 101.955 63.9722 101.277L63.6312 95.493L32.8317 85.3516C31.794 85.0099 30.8478 84.4371 30.0648 83.6765C29.2818 82.9159 28.6826 81.9875 28.3124 80.9617C27.7729 79.4663 27.7455 77.8346 28.2344 76.322C28.7233 74.8094 29.7009 73.5012 31.0144 72.6021L55.7812 55.6484L58.5116 69.6111Z" fill="#FFB8B8"/>
<path d="M72.1649 70.9734C66.4711 68.4836 61.2935 71.1882 54.7583 73.3572L53.7344 55.308C60.2236 51.857 66.4106 50.9265 72.1649 53.6052L72.1649 70.9734Z" fill="#00BC41"/>
<path d="M78.9737 46.5398C84.9911 46.5398 89.8692 41.6725 89.8692 35.6683C89.8692 29.6642 84.9911 24.7969 78.9737 24.7969C72.9562 24.7969 68.0781 29.6642 68.0781 35.6683C68.0781 41.6725 72.9562 46.5398 78.9737 46.5398Z" fill="#FFB8B8"/>
<path d="M92.0071 34.2965C81.2196 35.3508 72.9996 33.5904 67.7461 28.5781V24.5415H91.0916L92.0071 34.2965Z" fill="#2F2E41"/>
</g>
<defs>
<clipPath id="clip0_111_1882">
<rect width="363" height="252" fill="white"/>
</clipPath>
</defs>
</svg>
