<svg width="45" height="45" viewBox="0 0 45 45" fill="none" xmlns="http://www.w3.org/2000/svg">
<path d="M13.9263 22.5H24.6406M13.9263 26.7857H28.9263M13.9263 31.0714H20.3549M35.3549 33.2143V18.2143L24.6406 7.5H13.9263C12.7897 7.5 11.6996 7.95153 10.8959 8.75526C10.0922 9.55898 9.64063 10.6491 9.64062 11.7857V33.2143C9.64063 34.3509 10.0922 35.441 10.8959 36.2447C11.6996 37.0485 12.7897 37.5 13.9263 37.5H31.0692C32.2058 37.5 33.2959 37.0485 34.0997 36.2447C34.9034 35.441 35.3549 34.3509 35.3549 33.2143Z" stroke="black" stroke-width="2" stroke-linecap="round" stroke-linejoin="round"/>
<path d="M24.6406 7.5V13.9286C24.6406 15.0652 25.0922 16.1553 25.8959 16.959C26.6996 17.7628 27.7897 18.2143 28.9263 18.2143H35.3549" stroke="black" stroke-width="2" stroke-linecap="round" stroke-linejoin="round"/>
</svg>
